<?xml version="1.0" encoding="UTF-8"?>
<svg id="_레이어_1" data-name="레이어 1" xmlns="http://www.w3.org/2000/svg" viewBox="0 0 116 86.53">
  <defs>
    <style>
      .cls-1 {
        fill: #e8cd99;
      }

      .cls-2 {
        fill: #ddbe92;
      }

      .cls-3 {
        fill: #e1d6bc;
      }

      .cls-4 {
        fill: #ebcaa1;
      }

      .cls-5 {
        fill: #e3c286;
      }

      .cls-6 {
        fill: #e6bf84;
      }

      .cls-7 {
        fill: #efc082;
      }

      .cls-8 {
        fill: #f3d097;
      }

      .cls-9 {
        fill: #d3a66a;
      }

      .cls-10 {
        fill: #c79859;
      }

      .cls-11 {
        fill: #ecd7b8;
      }

      .cls-12 {
        fill: #eac788;
      }

      .cls-13 {
        fill: #edce9e;
      }

      .cls-14 {
        fill: #e9c07e;
      }

      .cls-15 {
        fill: #b68946;
      }

      .cls-16 {
        fill: #e0bd82;
      }

      .cls-17 {
        fill: #d5ab6e;
      }

      .cls-18 {
        fill: #c19c62;
      }

      .cls-19 {
        fill: #d3af6d;
      }

      .cls-20 {
        fill: #d0a668;
      }

      .cls-21 {
        fill: #eac287;
      }

      .cls-22 {
        fill: #d2b987;
      }

      .cls-23 {
        fill: #f5d497;
      }

      .cls-24 {
        fill: #d1ad73;
      }

      .cls-25 {
        fill: #e5bc7d;
      }

      .cls-26 {
        fill: #ddb474;
      }

      .cls-27 {
        fill: #e7c49c;
      }

      .cls-28 {
        fill: #f8d799;
      }

      .cls-29 {
        fill: #c0a265;
      }

      .cls-30 {
        fill: #e9c595;
      }

      .cls-31 {
        fill: #e9be81;
      }

      .cls-32 {
        fill: #e0c199;
      }

      .cls-33 {
        fill: #ebc083;
      }

      .cls-34 {
        fill: #efc991;
      }

      .cls-35 {
        fill: #f1cf92;
      }

      .cls-36 {
        fill: #ab8547;
      }

      .cls-37 {
        fill: #dfb877;
      }

      .cls-38 {
        fill: #ebc88e;
      }

      .cls-39 {
        fill: #ab9252;
      }

      .cls-40 {
        fill: #c19d63;
      }

      .cls-41 {
        fill: #cfb076;
      }

      .cls-42 {
        fill: #e2bb7f;
      }

      .cls-43 {
        fill: #f7d294;
      }

      .cls-44 {
        fill: #dbbb7b;
      }

      .cls-45 {
        fill: #be8c4d;
      }

      .cls-46 {
        fill: #edcd9d;
      }

      .cls-47 {
        fill: #e4cba6;
      }

      .cls-48 {
        fill: #ecbf87;
      }

      .cls-49 {
        fill: #e9c294;
      }

      .cls-50 {
        fill: #dbc9b0;
      }

      .cls-51 {
        fill: #e5bc7e;
      }

      .cls-52 {
        fill: #e9d3ac;
      }

      .cls-53 {
        fill: #e7c185;
      }

      .cls-54 {
        fill: #ba9050;
      }

      .cls-55 {
        fill: #e7c891;
      }

      .cls-56 {
        fill: #dac18e;
      }

      .cls-57 {
        fill: #f8d497;
      }

      .cls-58 {
        fill: #eab978;
      }

      .cls-59 {
        fill: #e1ba7e;
      }

      .cls-60 {
        fill: #c59c5c;
      }

      .cls-61 {
        fill: #dfc19a;
      }

      .cls-62 {
        fill: #e2c387;
      }

      .cls-63 {
        fill: #c99b5e;
      }

      .cls-64 {
        fill: #edc282;
      }

      .cls-65 {
        fill: #d0b680;
      }

      .cls-66 {
        fill: #c79c5d;
      }

      .cls-67 {
        fill: #e8bc8a;
      }

      .cls-68 {
        fill: #e3d0b2;
      }

      .cls-69 {
        fill: #e8cbae;
      }

      .cls-70 {
        fill: #d0af76;
      }

      .cls-71 {
        fill: #e1b875;
      }

      .cls-72 {
        fill: #efc58d;
      }

      .cls-73 {
        fill: #d2ae77;
      }

      .cls-74 {
        fill: #ecc083;
      }

      .cls-75 {
        fill: #c4aa7d;
      }

      .cls-76 {
        fill: #d8c499;
      }

      .cls-77 {
        fill: #edddc3;
      }

      .cls-78 {
        fill: #dcb272;
      }

      .cls-79 {
        fill: #b1874c;
      }

      .cls-80 {
        fill: #cca260;
      }

      .cls-81 {
        fill: #eec185;
      }

      .cls-82 {
        fill: #f0cb90;
      }

      .cls-83 {
        fill: #ecd5ae;
      }

      .cls-84 {
        fill: #c89b5b;
      }

      .cls-85 {
        fill: #e4d1b2;
      }

      .cls-86 {
        fill: #e2bd7b;
      }

      .cls-87 {
        fill: #c89c5e;
      }

      .cls-88 {
        fill: #eec78a;
      }

      .cls-89 {
        fill: #c2a069;
      }

      .cls-90 {
        fill: #f5d297;
      }

      .cls-91 {
        fill: #b3843f;
      }

      .cls-92 {
        fill: #f3d4a6;
      }

      .cls-93 {
        fill: #cfa565;
      }

      .cls-94 {
        fill: #ddcbab;
      }

      .cls-95 {
        fill: #dfba77;
      }

      .cls-96 {
        fill: #dbb577;
      }

      .cls-97 {
        fill: #eacc9d;
      }

      .cls-98 {
        fill: #d2b07e;
      }

      .cls-99 {
        fill: #d5ac73;
      }

      .cls-100 {
        fill: #e8ba7b;
      }

      .cls-101 {
        fill: #eac587;
      }

      .cls-102 {
        fill: #c5a36a;
      }

      .cls-103 {
        fill: #f9d69c;
      }

      .cls-104 {
        fill: #dcab64;
      }

      .cls-105 {
        fill: #c19756;
      }

      .cls-106 {
        fill: #ab7b3f;
      }

      .cls-107 {
        fill: #c49b63;
      }

      .cls-108 {
        fill: #c0944f;
      }

      .cls-109 {
        fill: #eec182;
      }

      .cls-110 {
        fill: #e8cfaa;
      }

      .cls-111 {
        fill: #deb771;
      }

      .cls-112 {
        fill: #efd8ad;
      }

      .cls-113 {
        fill: #e7d4b8;
      }

      .cls-114 {
        fill: #e0ba7b;
      }

      .cls-115 {
        fill: #be9557;
      }

      .cls-116 {
        fill: #cbac76;
      }

      .cls-117 {
        fill: #e3caa5;
      }

      .cls-118 {
        fill: #e0bf93;
      }

      .cls-119 {
        fill: #e4d1aa;
      }

      .cls-120 {
        fill: #e9c885;
      }
    </style>
  </defs>
  <path class="cls-114" d="M76.25,4.94c3.31,1.51,4.34,1.39,7.75.25.57-.25,1.15-.49,1.74-.75,6.17-2.58,11.95-3.45,18.5-1.63,5.52,2.34,8.34,5.99,10.76,11.38,1.39,4.62,1.08,7.64-1,12-2.63,2.78-4.23,3.86-8,4.56q-3-.56-5.5-3.12-2.28-2.76-5.5-2.56c-5.38,2.02-8.49,6.09-11,11.12q-.47,3.44-.38,7.06c0,1.21-.02,2.42-.02,3.66.42,3.48,1.15,4.7,3.4,7.28v2c3.29,1.9,6.19,2.84,10,3,1.67-1.33,3.34-2.66,5-4,4.29-.61,6.23-.5,9.88,1.88,3.26,3.26,3.33,5.29,3.44,9.81-.08,5.79-.59,8.84-4.31,13.31-4.71,3.63-9.53,4.63-15.4,4.4-4.52-.7-8.47-2.52-12.6-4.4q-1.49-.5-3-1-2.44,1.17-4.94,2.88c-7.64,4.96-15.15,4.8-24.06,4.12-4.85-1.28-8.91-3.3-13.12-6q-2.73-1.28-4.88-.33t-4.07,2.25c-4.64,2.59-9.75,2.56-14.93,2.08-5.22-1.65-8.45-3.83-12-8-1.63-4.89-1.37-8.78.12-13.69,2.21-3.9,3.81-5.44,7.88-7.31,3.81.07,6.08.29,9.12,2.62q1.82,1.63,4.31,1.31c3.77-1.38,6.6-3.33,8.68-6.81,2.14-5.17,1.35-10.64-.62-15.75-2.38-4.85-5.96-8.47-10.5-11.38h-3c-.74.83-1.49,1.65-2.25,2.5q-2.75,2.5-6.25,3.12c-4.46-.8-5.86-1.97-8.5-5.62-1.7-4.81-.95-7.72,1.12-12.19,2.72-4.98,5.39-7.99,10.88-9.81,7.8-.55,13.84-.07,21,3,4.08.42,6.49-.49,10.06-2.44,10.7-5.79,21.67-4.48,32.19,1.19Z"/>
  <path class="cls-25" d="M76.25,4.94c3.31,1.51,4.34,1.39,7.75.25.57-.25,1.15-.49,1.74-.75,6.17-2.58,11.95-3.45,18.5-1.63,5.45,2.31,8.48,5.97,10.76,11.38q.31,3,0,5c-2.82-1.19-4.55-2.49-6.88-4.56-4.13-3.22-6.57-3.69-11.74-3.18-4.43.66-8.15,1.23-11.76,3.99-.87.58-1.73,1.15-2.62,1.75-3.02-.66-4.92-1.95-7.5-3.62-2.77-1.52-4.39-1.64-7.5-1.38-.66,1.32-1.32,2.64-2,4q-4.95-.99-10-2v-1h8q-.49-1.49-1-3c-6.53-.33-11.92-.07-18.05,2.27-2.28.86-4.55,1.35-6.95,1.73v2h-4v2h2v2c.99.66,1.98,1.32,3,2v3q1.02,1.86,2.38,3.75c4.89,7.66,5.48,15.32,4.62,24.25-1.63,6.53-4.46,12.31-8,18h2c.28-.58.56-1.16.84-1.76,1.45-2.82,3.18-5.41,4.94-8.05,3.07-5.53,3.49-10.41,3.34-16.57,0-.74-.02-1.47-.03-2.23-.02-1.8-.06-3.6-.1-5.39,3.4,5.11,2.53,11.04,2,17-1.18,4.3-2.95,8.13-5.12,12.01-.99,2.25-1.08,3.8-1,6.24.04,1.24.08,2.47.12,3.75l-1-2h-3q.99.99,2,2c-.99.33-1.98.66-3,1l2,4c-.83-.41-1.65-.82-2.5-1.25-4.35-.93-5.87.03-9.57,2.21-4.67,2.53-9.74,2.53-14.93,2.04-5.22-1.65-8.45-3.83-12-8-1.63-4.89-1.37-8.78.12-13.69,2.21-3.9,3.81-5.44,7.88-7.31,3.81.07,6.08.29,9.12,2.62q1.82,1.63,4.31,1.31c3.77-1.38,6.6-3.33,8.68-6.81,2.14-5.17,1.35-10.64-.62-15.75-2.38-4.85-5.96-8.47-10.5-11.38h-3c-.74.83-1.49,1.65-2.25,2.5q-2.75,2.5-6.25,3.12c-4.46-.8-5.86-1.97-8.5-5.62-1.7-4.81-.95-7.72,1.12-12.19,2.72-4.98,5.39-7.99,10.88-9.81,7.8-.55,13.84-.07,21,3,4.08.42,6.49-.49,10.06-2.44,10.7-5.79,21.67-4.48,32.19,1.19Z"/>
  <path class="cls-110" d="M76.25,4.94c3.31,1.51,4.34,1.39,7.75.25.57-.25,1.15-.49,1.74-.75,6.17-2.58,11.95-3.45,18.5-1.63,5.45,2.31,8.48,5.97,10.76,11.38q.31,3,0,5c-2.82-1.19-4.55-2.49-6.88-4.56-4.13-3.22-6.57-3.69-11.74-3.18-4.43.66-8.15,1.23-11.76,3.99-.87.58-1.73,1.15-2.62,1.75-3.02-.66-4.92-1.95-7.5-3.62-2.77-1.52-4.39-1.64-7.5-1.38-.66,1.32-1.32,2.64-2,4q-4.95-.99-10-2v-1h8q-.49-1.49-1-3c-6.53-.33-11.92-.07-18.05,2.27-2.28.86-4.55,1.35-6.95,1.73v2c-4.44.58-6.97-.38-10.75-2.5-5.08-2.71-9.55-3.49-15.25-2.5-.99.66-1.98,1.32-3,2h8c.33.66.66,1.32,1,2q2.02,1.13,4,2v2l2,1,2,4c-2.97-.99-5.94-1.98-9-3-.06.78-.12,1.57-.19,2.38-.27.87-.54,1.73-.81,2.62q-2.56,1.31-5,2v2q-5.42-.48-7.81-2.62c-1.69-3.38-2.19-5.55-2.19-9.38C2.02,12.38,4.61,7.45,10,4.19c8.14-2.71,16.33-1.29,24,2,4.08.42,6.49-.49,10.06-2.44,10.7-5.79,21.67-4.48,32.19,1.19Z"/>
  <path class="cls-78" d="M109.19,14.63q.98.93,1.98,1.87,1.93,1.87,4.83,3.69c-.89,3.56-1.71,5.69-4.25,8.38-3.34,1.97-4.94,2.34-8.75,1.62-.82-.85-1.65-1.69-2.5-2.56q-2.28-2.76-5.5-2.56c-5.32,2-8.59,6.07-11,11.12q-.72,3.7-1,7h-3v8h-1q-.51-12.74,3-19-.21-3.28-1-6h2v-5h-2q-.62,1.58-1.25,3.19c-1.44,3.4-3.3,6.03-5.75,8.81v-5h2c-.33-.66-.66-1.32-1-2-.35.51-.7,1.01-1.06,1.53q-.68.97-1.38,1.97c-.45.65-.9,1.3-1.37,1.97-.39.51-.79,1.01-1.19,1.53h-1v-5h2v-6c.99-.33,1.98-.66,3-1,.33-1.65.66-3.3,1-5-.99-.33-1.98-.66-3-1,.33.99.66,1.98,1,3-1.32-.33-2.64-.66-4-1-.12.71-.23,1.41-.35,2.14-.7,3.09-1.77,5.77-3.02,8.68-1.52,3.56-3,7.11-4.31,10.75q-1.31,3.44-3.31,6.44c.32,2.63.81,4.63,2,7q-1.49.49-3,1c-1.04,2.37-1.9,4.62-2.69,7.06q-.34.99-.68,2.01c-.55,1.64-1.09,3.28-1.63,4.93-1.3-3.9-.2-6.53.94-10.31,1.39-4.64,2.31-8.8,2.06-13.69h-2c-.33-4.29-.66-8.58-1-13h-2c-2.89-4.51-4.77-7.46-4-13q2-2,5.91-2.2c1.57.01,3.14.04,4.71.07.8,0,1.6.02,2.43.03,1.98.02,3.96.06,5.95.1.33-1.32.66-2.64,1-4,4.37-.55,6.56.17,10.06,2.62q2.99,2.16,6.56,1.88c.78-.5,1.57-.99,2.38-1.5,8.22-4.56,16.71-6.11,24.19.44Z"/>
  <path class="cls-6" d="M62,9.19c.99.66,1.98,1.32,3,2h-2v2c-2.77,2.77-4.71,2.36-8.56,2.56q-4.04-.14-7.44,1.44c-.41,4.57.11,6.51,3,10v3h2c1.32,2.64,1.1,4.68,1.06,7.62,0,1-.02,2.01-.03,3.04-.01.77-.02,1.54-.04,2.34h2c1.17,5.43.94,7.41-2,12-1.09,2.26-2.15,4.53-3.19,6.81q-.79,1.74-1.61,3.52-.6,1.32-1.21,2.67h-2c-.33.99-.66,1.98-1,3q-1-3-.04-5.34c.47-.86.93-1.71,1.41-2.6q2.67-4.76,3.62-10.06c-.22.55-.44,1.09-.66,1.65-2.45,5.83-5.28,11.45-9.34,16.35h-2c1.55-4.01,3.3-7.91,5.1-11.82,3.72-9.01,2.68-18.96-.95-27.8-1.48-3.06-3.11-5.66-5.15-8.38l-2-3,1-2h-2v-2h4v-2c8.26-3.71,15.83-5.99,25-5Z"/>
  <path class="cls-74" d="M57,51.19c.99.33,1.98.66,3,1v6c-.99.33-1.98.66-3,1q-.7,1.94-1,4.25c-.72,3.8-1.73,6.55-4,9.75q2.19-.82,2.85-3.07c.26-.82.51-1.65.77-2.5.26-.83.52-1.65.79-2.5.19-.64.39-1.28.59-1.93h2c.99,2.64,1.98,5.28,3,8l-1-4c-.39-2.66-.69-5.33-1-8,2.51,1.26,2.87,2.5,4,5-.35-.91-.7-1.81-1.06-2.75-.94-3.26-.89-4.18.06-7.25.23.69.46,1.37.7,2.08q2.45,6.87,8.3,10.92c1.36,1.64,2.7,3.31,4,5l3,2v3h-2l-1,3c-1.98.33-3.96.66-6,1v-2l-3-1h2l-1-4-3,2q-3.25.52-7,.81c-1.24.11-2.48.22-3.75.33q-3.25-.14-5.19-1.63-.53-.75-1.06-1.51.6-1.49,1.21-3c2.67-6.64,5.32-13.28,7.79-20Z"/>
  <path class="cls-59" d="M21,10.19c4.18,1.7,8.09,3.74,12,6v2h2v2l3,2v3q1.02,1.86,2.38,3.75c5.01,7.85,4.87,15.17,4.62,24.25h-1c-.01-.68-.03-1.36-.04-2.05-.36-7.1-1.56-13.2-5.96-18.95-2.64-1.89-4.92-2.85-8-4v-2h-3v2c-.74-.31-1.49-.62-2.25-.94-.91-.35-1.82-.7-2.75-1.06-.66-.31-1.32-.62-2-.94-.66-.02-1.32-.04-2-.06-1.71,1.62-3.38,3.29-5,5h-3v-2c.62-.23,1.24-.45,1.88-.69,2.74-1.69,3.18-3.3,4.12-6.31q4.75-.12,7,1-1.84-2.05-4-3c.33-.66.66-1.32,1-2-1.32-.66-2.64-1.32-4-2v-2c-.91.37-1.82.74-2.75,1.12q-3.25.88-5.62,0c-.54-.37-1.07-.74-1.62-1.12,4.65-3.72,9.31-4.01,15-3Z"/>
  <path class="cls-112" d="M80,43.19h3c.12.6.24,1.21.37,1.83.17.8.34,1.6.51,2.42.16.79.32,1.58.49,2.39.85,3.17,1.61,5.67,4.38,7.55,2.87,1.04,5.18,1.69,8.25,1.81,1.67-1.33,3.34-2.66,5-4,4.1-.59,6.22-.42,9.88,1.56,2.7,3.1,2.89,5.4,3.12,9.44q-3,0-5.88-1.62t-5.88-.81c-2.49,1.59-3.25,2.7-4.25,5.44q-3.31.25-7,0-1.94-1.88-3-4v-2c-.78-.23-1.55-.47-2.36-.71-3.99-1.95-4.48-4.59-5.93-8.6-.99-3.73-1-6.85-.71-10.69Z"/>
  <path class="cls-83" d="M17,56.19c.7.54,1.4,1.07,2.12,1.62q1.8,1.65,4.19,1.12c.89-.25,1.77-.49,2.69-.75,2.33-.34,4.66-.68,7-1-1.37,4.01-3.03,6.95-6,10q-3.25,1.31-6,2v2h-2c.33-2.64.66-5.28,1-8-1.94.11-3.88.24-5.81.38-1.08.07-2.16.14-3.27.21q-3.1.23-5.92,2.41c.2.6.41,1.21.62,1.83.27.8.54,1.6.82,2.42q.4,1.18.81,2.39c.67,2.11,1.25,4.21,1.75,6.36q-3.44-1.31-7-3c-1.63-4.89-1.37-8.78.12-13.69,3.67-6.48,7.7-8.31,14.88-6.31Z"/>
  <path class="cls-7" d="M58.19,16.06c1.27.02,2.54.04,3.86.05q1.46.03,2.96.07v2h2c-.82,5.07-2.79,9.39-4.84,14.06-1.05,2.67-1.7,5.11-2.16,7.94h-2c-.33.66-.66,1.32-1,2-.33-.86-.65-1.71-.99-2.6q-2.76-7.28-5.76-14.46c-1-2.34-1.75-4.46-2.25-6.94,3.74-2.49,5.74-2.21,10.19-2.12Z"/>
  <path class="cls-30" d="M16,13.19l1,2q2.02,1.13,4,2v2c.66.33,1.32.66,2,1,.66,1.32,1.32,2.64,2,4-2.97-.99-5.94-1.98-9-3-.06.78-.12,1.57-.19,2.38-.27.87-.54,1.73-.81,2.62q-2.56,1.31-5,2v2q-5.42-.48-7.81-2.62C.57,24.34.06,21.8,0,18.19c1.81-2.55,3.13-3.68,6.06-4.75,3.29-.42,6.62-.25,9.94-.25Z"/>
  <path class="cls-38" d="M80,20.19c.99.33,1.98.66,3,1q.19,2.38,0,5c-.99.66-1.98,1.32-3,2q-1.11,2.39-2,5c-.34.55-.69,1.09-1.04,1.66-1.4,3.43-1.25,6.82-1.21,10.47,0,.73-.02,1.46-.02,2.21q-.13,4.3,2.27,7.67h2q1.47,2.05,3.06,4.75c.53.88,1.05,1.76,1.6,2.67,1.17,2.25,1.87,4.11,2.34,6.58h-2c-.66-1.32-1.32-2.64-2-4-.66.66-1.32,1.32-2,2,.66.66,1.32,1.32,2,2v3h-2c-6.65-11.71-11.71-21.31-8.2-35.14,1.57-4.53,3.32-8.04,6.2-11.86q.71-2.65,1-5Z"/>
  <path class="cls-88" d="M39,21.19h2c1.71,1.96,3.38,3.96,5,6,.66-.66,1.32-1.32,2-2q2,2,2,5h2c1.32,2.64,1.1,4.68,1.06,7.62,0,1-.02,2.01-.03,3.04-.01.77-.02,1.54-.04,2.34h2c1.17,5.43.94,7.41-2,12-1.09,2.26-2.15,4.53-3.19,6.81q-.79,1.74-1.61,3.52-.6,1.32-1.21,2.67h-2c-.33.99-.66,1.98-1,3q-1-3-.04-5.34c.47-.86.93-1.71,1.41-2.6,4.28-7.93,5.33-16.95,2.87-25.77-1.92-4.42-4.49-8.34-7.25-12.29-.69-1.32-1.38-2.65-2-4Z"/>
  <path class="cls-46" d="M63,4.19q6.28.84,9,2c.33.99.66,1.98,1,3h3v2c.93.1,1.86.21,2.81.31,3.22.69,4.21,1.16,6.19,3.69q-2,1.31-5,2c-2.17-1.1-4.07-2.42-6.06-3.82-2.41-1.47-4.16-1.62-6.94-1.18-.66,1.32-1.32,2.64-2,4-3.3-.66-6.6-1.32-10-2v-1h8c-.33-.99-.66-1.98-1-3h-13c2.44-7.33,7.19-6.57,14-6Z"/>
  <path class="cls-105" d="M51.91,14.99c1.57.01,3.14.04,4.71.07.8,0,1.6.02,2.43.03,1.98.02,3.96.06,5.95.1v1c-.99.06-1.97.12-2.99.18-1.28.08-2.56.17-3.88.25-1.28.08-2.55.16-3.87.25q-3.14.11-5.26,1.32c1.2,3.79,2.6,7.41,4.2,11.05,1.47,3.58,2.62,7.26,3.8,10.95h3c.04-1.07.08-2.15.12-3.25.72-6.16,3.95-11.38,6.88-16.75.33.66.66,1.32,1,2q-.89,2.54-2.25,5.62c-1.57,3.62-3.1,7.22-4.44,10.94q-1.31,3.44-3.31,6.44c.32,2.63.81,4.63,2,7q-1.49.49-3,1c-1.04,2.37-1.9,4.62-2.69,7.06q-.34.99-.68,2.01c-.55,1.64-1.09,3.28-1.63,4.93-1.3-3.9-.2-6.53.94-10.31,1.39-4.64,2.31-8.8,2.06-13.69h-2c-.33-4.29-.66-8.58-1-13h-2c-2.89-4.51-4.77-7.46-4-13q2-2,5.91-2.2Z"/>
  <path class="cls-53" d="M62,54.19c2,2.37,3.01,4.05,3.88,7.06,1.4,3.66,2.76,4.1,6.12,5.94,1.36,1.64,2.7,3.31,4,5l3,2v3h-2l-1,3c-1.98.33-3.96.66-6,1v-2c-.99-.33-1.98-.66-3-1h2c-.97-4.47-2.11-8.42-4.06-12.56-1.81-3.88-2.58-7.18-2.94-11.44Z"/>
  <path class="cls-68" d="M26,3.19l2,1c-.33.99-.66,1.98-1,3q-8.91.99-18,2v3c-.8.27-1.61.54-2.44.81-.85.39-1.69.78-2.56,1.19l-1,3H1c1.59-5.68,3.67-9.27,8.44-12.81,5.44-1.81,10.88-1.6,16.56-1.19Z"/>
  <path class="cls-89" d="M80,76.19c.83.45,1.66.9,2.51,1.36,4.74,2.22,9.19,2.44,14.37,2.82q1.46.12,2.95.25c2.39.2,4.78.39,7.17.56-.33.66-.66,1.32-1,2-8.34,2.78-15.3.52-23-3-.99-.33-1.98-.66-3-1q-2.44,1.17-4.94,2.88c-5.78,3.75-9.53,4.28-16.44,4.31-1.29.01-2.57.03-3.9.04-3.61-.22-6.37-.92-9.73-2.23,3.24-1.08,3.88-.86,7,0,2.76.07,5.49.09,8.25.06.75,0,1.49,0,2.26-.01,1.83-.01,3.66-.03,5.49-.05.33-.66.66-1.32,1-2,2.33-1,4.67-2,7-3,.33-.66.66-1.32,1-2,.99-.33,1.98-.66,3-1Z"/>
  <path class="cls-80" d="M100,11.19c4.51.18,7.13.72,10.25,3.94.46.52.92,1.05,1.39,1.59q1.49,1.73,4.36,3.47c-.89,3.56-1.71,5.69-4.25,8.38-3.34,1.97-4.94,2.34-8.75,1.62q-2.88-2.31-5-5v-3h2c.23.64.45,1.28.69,1.94q1.16,2.29,3.75,2.94,2.81.39,5.56-1.88.25-3.08,0-6c-2.64-1.32-5.28-2.64-8-4v-2h-2v-2Z"/>
  <path class="cls-51" d="M80,26.19q1.56,1.19,3,3c-.2,2.62-.69,4.47-2.01,6.74-1.32,3.02-1.42,5.73-1.61,9.01q-.11,1.76-.23,3.55-.07,1.34-.15,2.7h2q-.31,1.94-1,4c-.99.33-1.98.66-3,1-2.44-3.66-2.38-6.51-2.38-10.75,0-.72,0-1.45,0-2.19.12-5.62,1.06-8.64,4.38-13.06q.76-2.27,1-4Z"/>
  <path class="cls-55" d="M27,26.19h3v2c1.98.66,3.96,1.32,6,2v2c.33.61.65,1.21.99,1.84,1.15,2.44,1.24,4.02,1.21,6.71q0,1.27-.02,2.56c-.02.87-.03,1.75-.05,2.64,0,.89-.02,1.78-.03,2.69-.02,2.19-.06,4.37-.1,6.56h-2c.06.76.12,1.53.19,2.31-.22,3.18-.91,3.64-3.19,5.69.33-1.2.66-2.39,1-3.62,1.65-7.34,2.24-16.11,0-23.38-.66.66-1.32,1.32-2,2-.98-1.73-1.95-3.45-2.93-5.18-.96-1.64-2.01-3.24-3.07-4.82l1-2Z"/>
  <path class="cls-111" d="M50,67.19l1,2c-.63,1.68-1.3,3.35-2,5v2c2.58-.09,5.17-.19,7.75-.31.73-.02,1.46-.05,2.21-.07,4.24-.21,6.95-.59,10.04-3.62v6c-3.3.66-6.6,1.32-10,2,2.31.33,4.62.66,7,1-3.34,2.36-6.09,2.04-10.03,1.43-2.46-.53-4.69-1.36-6.97-2.43v-2c-.52-.45-1.03-.91-1.56-1.38-.47-.54-.95-1.07-1.44-1.62.22-3.37,1.9-5.45,4-8Z"/>
  <path class="cls-109" d="M75,25.19c.33.99.66,1.98,1,3h-2q-.19,1.49-.38,3c-.38,2.72-.95,5.29-1.69,7.94-1.66,6.41-1.02,12.59.06,19.06q-1.94-.81-4-2c-2.28-6.85-2.11-15.41.75-22.06,1.72-3.29,3.75-6.17,6.25-8.94Z"/>
  <path class="cls-45" d="M61,18.19l2,1c-.65,3.52-1.51,6.89-2.56,10.31-.27.88-.54,1.77-.82,2.68-.2.66-.41,1.33-.62,2.01h-2c-.84-2.12-1.67-4.25-2.5-6.38q-.7-1.78-1.41-3.59-1.09-3.04-1.09-5.04c3.23-1.08,5.62-1.14,9-1Z"/>
  <path class="cls-86" d="M108.69,64.94q2.31,1.25,3.31,2.25c.04,1.67.04,3.33,0,5-.99.33-1.98.66-3,1v-3c-.66,1.65-1.32,3.3-2,5h-2v-2c-1.65-.33-3.3-.66-5-1,.92-2.83,1.77-4.75,3.81-6.94q2.19-1.06,4.88-.31ZM89,68.19q1.33.71,2.69,1.44c2.88,1.36,5.19,2.1,8.31,2.56l-2,2q-6.46-.46-9-3v-3Z"/>
  <path class="cls-115" d="M48,37.19c3.4,5.11,2.53,11.04,2,17-.98,3.55-2.32,6.73-4,10-.37.75-.75,1.5-1.13,2.27-.29.57-.57,1.14-.87,1.73h-2c-.08.62-.16,1.24-.25,1.88q-.75,2.12-2.81,3.38c-.64.25-1.28.49-1.94.75v-2h-2c.91-3.01,1.81-5.68,3.44-8.38,2.03-3.41,3.23-6.88,4.56-10.62q.71,1.55,1,4c-1.05,2.54-2.14,4.84-3.44,7.25-.34.65-.68,1.3-1.03,1.97-.83,1.6-1.68,3.19-2.54,4.78h2c.28-.58.56-1.16.84-1.76,1.45-2.82,3.18-5.41,4.94-8.05,3.07-5.53,3.49-10.41,3.34-16.57,0-.74-.02-1.47-.03-2.23-.02-1.8-.06-3.6-.1-5.39Z"/>
  <path class="cls-33" d="M47,39.19c2.63,2.63,2.33,3.9,2.38,7.56-.18,9.38-4.43,17.26-10.38,24.44h-2c1.24-3.19,2.59-6.32,4-9.44,3.29-7.42,4.78-14.55,6-22.56Z"/>
  <path class="cls-42" d="M14,65.19c2.31,2.77,3.35,5.47,4,9q-3-1-4-2c-.33,1.32-.66,2.64-1,4q-4,0-5.75-1.12c-1.76-2.65-1.46-4.77-1.25-7.88-.66-.33-1.32-.66-2-1,3.61-1.2,6.21-1.41,10-1Z"/>
  <path class="cls-54" d="M67,35.19c1.17,3.61.97,6.86.81,10.62-.06,8.05,1.75,13.72,6.19,20.38,1.93,1.93,3.48,3.01,6,4-.33.99-.66,1.98-1,3-3.02-.32-3.96-.96-6.07-3.22-7.22-9.97-9.01-17.4-7.93-29.78q1.02-2.89,2-5Z"/>
  <path class="cls-11" d="M73,5.19c.57.08,1.14.17,1.72.25,5.04.67,9.28.7,14.28-.25-.16.76-.33,1.53-.5,2.31q-.59,2.72-.5,5.69c-4.93,1.64-7.54.19-12-2v-2h-3v-4Z"/>
  <path class="cls-43" d="M68,15.19l4,2v-2c1.32.33,2.64.66,4,1v3h-2v2c-1.32.33-2.64.66-4,1-.13.57-.27,1.14-.4,1.73-.59,2.24-1.33,4.35-2.16,6.52-.27.71-.54,1.41-.82,2.14-.2.53-.41,1.06-.62,1.61h-2v7c-.99.33-1.98.66-3,1,.37-6.39,2.22-11.34,4.84-17.17,1.34-3.28,2.16-6.29,2.16-9.83Z"/>
  <path class="cls-70" d="M38,77.19q1.75,2.06,3,4c-.83-.41-1.65-.83-2.5-1.25-4.35-.93-5.87.03-9.57,2.21-5.06,2.73-11.42,2.98-16.93,1.51-3.75-1.49-6.38-3.43-9-6.47,3.4,1.06,6.01,2.01,9,4q3.43.24,7.19.12c1.27-.02,2.54-.04,3.86-.05.98-.02,1.95-.05,2.96-.07v-2h3v-2c3.32-.83,5.8-1.39,9,0Z"/>
  <path class="cls-102" d="M93,22.19c.99.33,1.98.66,3,1-.72.56-1.44,1.11-2.19,1.69-6.99,5.74-9.77,9.32-10.81,18.31h-3v8h-1c-.59-8.49-.67-15.27,5-22,2.79-2.68,5.58-5.17,9-7Z"/>
  <path class="cls-90" d="M80,20.19c.99.33,1.98.66,3,1q.19,2.38,0,5c-.99.66-1.98,1.32-3,2-.73,1.64-1.39,3.31-2,5-.5.87-1,1.75-1.52,2.65-1.78,4.04-2.03,7.37-2.17,11.73-.03.74-.07,1.47-.1,2.23-.08,1.8-.15,3.6-.21,5.39-2.7-2.7-2.33-4.17-2.38-7.94.12-8.49,2.28-15.31,7.38-22.06q.71-2.65,1-5Z"/>
  <path class="cls-98" d="M21,10.19q2.31,1.02,4,2v3c.99.33,1.98.66,3,1-4.52,1.37-7.59.47-12-1v-2c-.91.37-1.82.74-2.75,1.12q-3.25.88-5.62,0c-.54-.37-1.07-.74-1.62-1.12,4.59-3.67,9.37-3.71,15-3Z"/>
  <path class="cls-66" d="M60,52.19c1.74,2.61,2.69,4.58,3.69,7.5.27.77.54,1.55.82,2.34q.49,2.16-.51,5.16c-.99-2.31-1.98-4.62-3-7,.51,4.32,1.2,8.03,3,12q-1.94-.56-4-2-.75-3.62-1-7h-2q-.19,1.36-.38,2.75c-.55,2.84-1.2,4.78-2.62,7.25h-2q4.37-13.37,7-16,.65-2.57,1-5Z"/>
  <path class="cls-117" d="M102,55.19c3.94-.31,6.36-.35,9.88,1.56,2.7,3.1,2.89,5.4,3.12,9.44-3.69,0-5.78-1.28-9-3,.33-1.65.66-3.3,1-5h-2v-2c-.99-.33-1.98-.66-3-1Z"/>
  <path class="cls-22" d="M33,35.19q2,1,2.61,2.65c1.58,9.42.78,17.86-3.61,26.35h-2q1.88-4.75,3-7c-1.32-.33-2.64-.66-4-1,.65-.83,1.31-1.66,1.98-2.51,2.44-3.65,2.48-7.08,2.27-11.37-.02-.69-.04-1.38-.05-2.09-.05-1.68-.12-3.36-.2-5.04Z"/>
  <path class="cls-62" d="M19,16.19q2,2,2,3c.66.33,1.32.66,2,1,.66,1.32,1.32,2.64,2,4-2.97-.99-5.94-1.98-9-3-.08.78-.16,1.57-.25,2.38q-.75,2.62-2.81,3.94c-.64.23-1.28.45-1.94.69q-1.12-2.81-2-6c2.13-3.2,2.68-3.52,6.12-4.69.72-.25,1.45-.5,2.2-.76q.83-.27,1.68-.55Z"/>
  <path class="cls-13" d="M20,8.19q2.6.02,5.62.38c1,.11,2.01.22,3.04.34q1.16.14,2.34.29v2c1.58,1.58,3.38,1.35,5.56,1.56.83.08,1.65.17,2.5.25.64.06,1.28.12,1.93.18l-4,1v2c-5.1.37-8.31-.77-12.88-3-1.15-.56-2.3-1.11-3.49-1.69-.87-.43-1.74-.87-2.63-1.31l2-2Z"/>
  <path class="cls-91" d="M35,21.19c.99.33,1.98.66,3,1v3q1.02,1.86,2.38,3.75c5.01,7.85,4.87,15.17,4.62,24.25h-1c.02-.61.04-1.22.06-1.84-.2-8.4-3.35-14.43-7.25-21.65-1.4-2.7-2.3-4.58-2.81-7.5l1-1Z"/>
  <path class="cls-84" d="M80,20.19c.75,4.79-1.31,7.57-3.81,11.43-.39.52-.79,1.04-1.19,1.57h-1v-5h2c-.33-.66-.66-1.32-1-2-.35.51-.7,1.01-1.06,1.53-.46.65-.91,1.3-1.38,1.97-.45.65-.9,1.3-1.37,1.97-.39.51-.79,1.01-1.19,1.53h-1v-5h2v-6h3q3-2,6-2Z"/>
  <path class="cls-15" d="M51.91,14.99c1.57.01,3.14.04,4.71.07.8,0,1.6.02,2.43.03,1.98.02,3.96.06,5.95.1v1c-.99.06-1.97.12-2.99.18-1.28.08-2.56.17-3.88.25-1.28.08-2.55.16-3.87.25q-3.14.11-5.26,1.32c1.06,3.34,2.21,6.45,3.69,9.62q1.31,3.38,1,5.81c-.23.52-.45,1.03-.69,1.56-.33-1.65-.66-3.3-1-5h-2c-2.89-4.51-4.77-7.46-4-13q2-2,5.91-2.2Z"/>
  <path class="cls-61" d="M2,65.19h2v2h2l3,12q-3.44-1.31-7-3c-1.16-3.49-1.14-6.34-1-10l1-1Z"/>
  <path class="cls-103" d="M51,44.19h1c2.09,9.49-.41,15.64-5,24h-2l-1,3q-1-3-.11-4.99c.45-.77.9-1.53,1.36-2.32,3.33-6.26,4.52-12.76,5.75-19.69Z"/>
  <path class="cls-96" d="M66,11.19c5.26-.64,7.69.79,11.68,3.91.44.36.87.72,1.32,1.09q-3,1-5.19.06c-.6-.35-1.2-.7-1.81-1.06.33.99.66,1.98,1,3-1.32-.33-2.64-.66-4-1-.33,1.32-.66,2.64-1,4-.33-.99-.66-1.98-1-3h-2c.33-2.31.66-4.62,1-7Z"/>
  <path class="cls-79" d="M107.25,63c.91.39,1.82.78,2.75,1.19-.56.06-1.11.12-1.69.19-3.8,1.33-6.52,4.24-8.31,7.81q-6.4-.49-9.44-3.06c-.52-.64-1.03-1.28-1.56-1.94q4.95.99,10,2c.33-1.32.66-2.64,1-4,2.62-2.91,3.37-3.16,7.25-2.19Z"/>
  <path class="cls-41" d="M110,65.19c1.65.33,3.3.66,5,1,.5,6.12-.55,9.11-4,14q-2.25,1.44-4,2c-.66-.66-1.32-1.32-2-2h2c.29-.58.58-1.15.88-1.75.71-1.42,1.45-2.82,2.25-4.19,1.06-2.51,1.09-4.36.88-7.06l-1-2Z"/>
  <path class="cls-14" d="M57,63.19h2c.19.55.39,1.11.59,1.68.26.72.52,1.45.79,2.2.26.72.51,1.44.77,2.18q.79,2.13,2.85,3.95-1,1-3.07,1.1l-6.93-.1c.99-3.63,1.98-7.26,3-11Z"/>
  <path class="cls-64" d="M60,59.19l2,1c.31,1.15.62,2.31.94,3.5.35,1.16.7,2.31,1.06,3.5.99.33,1.98.66,3,1,.33,1.98.66,3.96,1,6-.99.66-1.98,1.32-3,2-.99-.33-1.98-.66-3-1,.66-.33,1.32-.66,2-1-.29-.54-.58-1.07-.88-1.62-2.12-4.48-3.42-8.38-3.12-13.38Z"/>
  <path class="cls-57" d="M62,54.19c2.03,2.4,3.05,4.15,4,7.19.33.93.66,1.86,1,2.81.99.33,1.98.66,3,1-.02.91-.04,1.81-.06,2.75q-.07,3.09.62,5.38c.53,2.26.14,3.69-.56,5.88-.99-.33-1.98-.66-3-1h2c-.97-4.47-2.11-8.42-4.06-12.56-1.81-3.88-2.58-7.18-2.94-11.44Z"/>
  <path class="cls-65" d="M16,21.19c3.06-.26,4.63-.22,7.31,1.38.56.54,1.11,1.07,1.69,1.62v2h2v2l-2.25-.94c-.91-.35-1.82-.7-2.75-1.06-.66-.31-1.32-.62-2-.94-.66-.02-1.32-.04-2-.06-1.71,1.62-3.38,3.29-5,5h-3v-2q.93-.34,1.88-.69c2.74-1.69,3.18-3.3,4.12-6.31Z"/>
  <path class="cls-81" d="M103,66.19q2.06.44,4,1l-3,6c-1.32-.33-2.64-.66-4-1q1.88-4.88,3-6ZM89,68.19q1.33.71,2.69,1.44c2.88,1.36,5.19,2.1,8.31,2.56-.66.66-1.32,1.32-2,2q-6.46-.46-9-3v-3Z"/>
  <path class="cls-63" d="M68,72.19h1v6c-1.96.36-3.92.71-5.88,1.06-1.09.2-2.18.39-3.3.6q-2.82.34-4.82-.66v-2c.85-.19,1.71-.39,2.59-.59,1.1-.26,2.21-.52,3.35-.79,1.1-.26,2.2-.51,3.34-.77.9-.28,1.8-.56,2.72-.85l1-2Z"/>
  <path class="cls-56" d="M27,26.19h3v2c1.98.66,3.96,1.32,6,2-.99,2.64-1.98,5.28-3,8-2.49-3.24-4.75-6.59-7-10l1-2Z"/>
  <path class="cls-99" d="M53,9.19c1.44-.05,2.87-.09,4.31-.12.8-.02,1.6-.05,2.43-.07q2.26.2,5.26,2.2h-2v2q-2,2-3.88,2.27c-.7,0-1.4-.01-2.12-.02-.7,0-1.4.01-2.12.02q-1.88-.27-3.88-2.27l2-4Z"/>
  <path class="cls-101" d="M44,70.19q3,2,3.51,3.95c.16,2.02.33,4.04.49,6.05-1.65.33-3.3.66-5,1v-2h-4v-2c.66-.33,1.32-.66,2-1-.66-.66-1.32-1.32-2-2,.66-.33,1.32-.66,2-1,.66.33,1.32.66,2,1l1-4Z"/>
  <path class="cls-104" d="M105,18.19l1,2c-.33.66-.66,1.32-1,2l6-3q.12,2.88,0,6c-.66.66-1.32,1.32-2,2h-3v-2c-1.32-.33-2.64-.66-4-1q1.88-4.88,3-6Z"/>
  <path class="cls-32" d="M16,13.19c-3.24,3.88-6.1,4.97-11,6q-2.94.12-5,0,3.43-4.77,6.06-5.81c3.3-.32,6.62-.19,9.94-.19Z"/>
  <path class="cls-8" d="M101,63.19c-.66,1.98-1.32,3.96-2,6h-7c-.66-1.32-1.32-2.64-2-4,3.88-1.19,6.92-2,11-2Z"/>
  <path class="cls-85" d="M10,56.19c-.43,4.75-1.33,6.92-5,10-.99-.33-1.98-.66-3-1q1.47-5.5,4-7.88,2-1.12,4-1.12Z"/>
  <path class="cls-93" d="M55,43.19h2c.31,1.11.62,2.23.94,3.38q.89,3.42,2.06,5.62c-.99.33-1.98.66-3,1-1.04,2.37-1.9,4.62-2.69,7.06-.22.66-.45,1.33-.68,2.01-.55,1.64-1.09,3.28-1.63,4.93-1.3-3.9-.2-6.53.94-10.31,1.39-4.64,2.31-8.8,2.06-13.69Z"/>
  <path class="cls-37" d="M70,22.19q1.06,1.88,2,4c-.33.66-.66,1.32-1,2h-2c.05.61.09,1.23.14,1.86.11,2.43.15,4.72-.14,7.14q-2,2.06-4,3c-.33-1.98-.66-3.96-1-6h2c.1-.87.21-1.73.31-2.62.72-3.54,1.96-6.22,3.69-9.38Z"/>
  <path class="cls-4" d="M80,43.19h3c.11.59.22,1.18.33,1.79.93,4.62,1.89,8.29,4.67,12.21-.99.33-1.98.66-3,1q-3-4.75-3-7h-2v-8Z"/>
  <path class="cls-52" d="M89,7.19c-.35.62-.7,1.24-1.06,1.88-.31.7-.62,1.4-.94,2.12.33.66.66,1.32,1,2-3.58,1.19-5.08.97-8.75-.25q-3.25-1.75-4.25-4.75h3v2c.63-.22,1.25-.43,1.9-.66q1.23-.42,2.48-.84c.81-.28,1.62-.56,2.46-.84q2.16-.66,4.16-.66Z"/>
  <path class="cls-40" d="M98,22.19h2c.23.64.45,1.28.69,1.94q1.15,2.27,3.62,2.88c2.78.19,4.99-.12,7.69-.81q-1,3-3,4-2.81.38-6,0-2.88-2.31-5-5v-3Z"/>
  <path class="cls-3" d="M7,6.19l2,1v5c-.8.27-1.61.54-2.44.81-.85.39-1.69.78-2.56,1.19-.33.99-.66,1.98-1,3H1c1.26-4.51,2.9-7.49,6-11Z"/>
  <path class="cls-26" d="M45,31.19q1.56,1,3,3c-.19,2.76-.53,5.29-1,8-.2,1.67-.39,3.33-.56,5-.08.76-.17,1.53-.25,2.31-.06.56-.12,1.11-.18,1.69h-1c-.2-2.21-.38-4.42-.56-6.62-.1-1.23-.21-2.46-.32-3.73-.11-3.4.19-6.32.88-9.65Z"/>
  <path class="cls-12" d="M68,15.19l4,2v-2c1.32.33,2.64.66,4,1v3h-2v2c-.64.1-1.28.21-1.94.31-.68.23-1.36.45-2.06.69-.33.99-.66,1.98-1,3-.33-3.3-.66-6.6-1-10Z"/>
  <path class="cls-58" d="M54,21.19h7c-.99,3.3-1.98,6.6-3,10-1.67-3.34-2.87-6.46-4-10Z"/>
  <path class="cls-69" d="M105,5.19q2.25.12,5,1,2.38,2.88,4,6l-1,3c-.99-.33-1.98-.66-3-1,.66-.33,1.32-.66,2-1v-2c-1.32-.33-2.64-.66-4-1v-2c-.99-.33-1.98-.66-3-1v-2Z"/>
  <path class="cls-29" d="M3,77.19c3.25,1.03,6.33,2.15,9.44,3.56,3.58,1.45,6.73,2.05,10.56,2.44v1c-6.18.38-10.53,0-16-3q-2.44-2.19-4-4Z"/>
  <path class="cls-82" d="M64,72.19v3c-4.48,1.43-8.24,2.44-13,2-.66-.66-1.32-1.32-2-2,1-.13,2-.27,3.03-.4,1.29-.18,2.58-.35,3.91-.54,1.29-.17,2.58-.35,3.9-.53q3.01-.2,4.16-1.54Z"/>
  <path class="cls-16" d="M9,77.19l1,2q2.61.47,5.69.62c1.04.07,2.07.15,3.14.23,3.06.14,6.11.18,9.18.15q-2,2-5.15,2.27c-1.25,0-2.5-.01-3.79-.02-1.25,0-2.49.01-3.78.02q-3.29-.27-6.29-2.27v-3Z"/>
  <path class="cls-116" d="M112,18.19l4,2c-.6,2.02-1.27,4.02-2,6q-.99.49-2,1c-.66-.66-1.32-1.32-2-2,.66-2.31,1.32-4.62,2-7Z"/>
  <path class="cls-73" d="M83,36.19v7h-3v8h-1c-.08-2.12-.14-4.25-.19-6.38-.03-1.18-.07-2.37-.11-3.59.1-1,.19-2.01.29-3.04q3-2,4-2Z"/>
  <path class="cls-17" d="M74,59.19c2.24,2.88,4.33,5.75,6,9l-1,3-1-2q-2.02-1.13-4-2c.33-.99.66-1.98,1-3q-.39-2.64-1-5Z"/>
  <path class="cls-1" d="M18,59.19l1,4h-11c2.07-4.14,5.74-4.24,10-4Z"/>
  <path class="cls-75" d="M110,65.19q2.47.5,5,1v7h-4c.02-.95.04-1.9.06-2.88q.16-3.03-1.06-5.12Z"/>
  <path class="cls-71" d="M65,67.19q1.56,1.19,3,3-.31,2.69-1,5c-1.65.33-3.3.66-5,1,.35-.62.7-1.24,1.06-1.88.31-.7.62-1.4.94-2.12-.33-.66-.66-1.32-1-2h2v-3Z"/>
  <path class="cls-36" d="M6,64.19c1.46-.03,2.92-.05,4.38-.06.81-.01,1.62-.02,2.46-.04q2.16.1,4.16,1.1.62,3.06,1,6-2-1.31-4-3v-3q-4.45.5-9,1l1-2Z"/>
  <path class="cls-5" d="M20,63.19v4h-3v-2c-2.97-.33-5.94-.66-9-1v-1c4.33-.93,7.67-.93,12,0Z"/>
  <path class="cls-72" d="M40,26.19q4.73,4.36,5.94,7.19.03.9.06,1.81c-.66.66-1.32,1.32-2,2-.67-1.27-1.34-2.54-2-3.81-.37-.71-.74-1.42-1.12-2.14q-.88-2.04-.88-5.04Z"/>
  <path class="cls-31" d="M65,10.19l2,1c-.33,1.65-.66,3.3-1,5-3.63-.66-7.26-1.32-11-2v-1h8v-2l2-1Z"/>
  <path class="cls-44" d="M45,77.19c.66.99,1.32,1.98,2,3,1.32.66,2.64,1.32,4,2q-4.46.49-9,1c-.66-1.32-1.32-2.64-2-4h3v2h2v-4Z"/>
  <path class="cls-118" d="M107,59.19q3,1,6,3v2l2,2c-3.69,0-5.78-1.28-9-3l1-4Z"/>
  <path class="cls-9" d="M36,22.19c2.38.18,3.7.7,5.38,2.4,1.24,1.5,2.43,3.05,3.62,4.6l-1,2c-.43-.66-.87-1.32-1.31-2q-.84-.99-1.69-2h-3c-.66-1.65-1.32-3.3-2-5Z"/>
  <path class="cls-10" d="M51.82,15.09c1.58,0,3.16.02,4.75.04.81,0,1.61,0,2.44.01,2,.01,4,.03,5.99.05v1c-.96.05-1.93.1-2.92.15-1.26.07-2.53.15-3.83.23q-1.88.1-3.8.21c-3.06.37-4.87.81-7.45,2.41,0-4.47.2-3.98,4.82-4.1Z"/>
  <path class="cls-50" d="M17,3.19h6c-.33.99-.66,1.98-1,3-3.3.33-6.6.66-10,1v-2h5v-2Z"/>
  <path class="cls-94" d="M2,65.19h2v9c-.99-.33-1.98-.66-3-1-.04-2.33-.04-4.67,0-7l1-1Z"/>
  <path class="cls-21" d="M64,36.19h1q.29,6.05,0,8c-.99.66-1.98,1.32-3,2-.66-.66-1.32-1.32-2-2,.33-.99.66-1.98,1-3h2c.33-1.65.66-3.3,1-5Z"/>
  <path class="cls-39" d="M16,22.19h2c-.34,3.11-.59,4.6-2.88,6.81q-2.12,1.19-5.12,1.19v-2c.62-.25,1.24-.49,1.88-.75,2.48-1.46,3.08-2.63,4.12-5.25Z"/>
  <path class="cls-113" d="M2,18.19l2,1v7c-.99-.33-1.98-.66-3-1-.33-1.98-.66-3.96-1-6l2-1Z"/>
  <path class="cls-34" d="M89,68.19q4.95,1.98,10,4c-.33.66-.66,1.32-1,2q-6.75-.75-9-3v-3Z"/>
  <path class="cls-24" d="M29,64.19l1,2q-1.12,1.94-3,4-3.19.75-6,1v-2q1.75-1.29,4-2.62c.74-.45,1.48-.89,2.25-1.35.58-.34,1.15-.68,1.75-1.02Z"/>
  <path class="cls-2" d="M107,12.19q1.42.5,2.88,1,2.9,1.1,5.12,1v5c-3.8-1.49-5.61-3.76-8-7Z"/>
  <path class="cls-27" d="M105,7.19c.99.33,1.98.66,3,1v2c1.32.33,2.64.66,4,1v2c-2.31-.33-4.62-.66-7-1v-5Z"/>
  <path class="cls-35" d="M48,61.19q1,3,.06,5.19-.53.9-1.06,1.81h-2c-.33.99-.66,1.98-1,3q-1-3-.25-5c1.24-1.98,2.53-3.44,4.25-5Z"/>
  <path class="cls-119" d="M82,50.19h2c1.32,2.31,2.64,4.62,4,7-.99.33-1.98.66-3,1q-3-4.62-3-8Z"/>
  <path class="cls-100" d="M53,26.19h2c.66,2.31,1.32,4.62,2,7h-2c-.33.66-.66,1.32-1,2-.36-1.31-.71-2.62-1.06-3.94q-.3-1.1-.6-2.21c-.11-.61-.22-1.22-.34-1.85l1-1Z"/>
  <path class="cls-92" d="M88,10.19v3q-2.31.69-5,1-1.81-1.44-3-3,5.75-2.12,8-1Z"/>
  <path class="cls-20" d="M69,72.19v6c-1.98.33-3.96.66-6,1q3.14-7,6-7Z"/>
  <path class="cls-87" d="M50,67.19l1,2c-.64,1.68-1.31,3.34-2,5v3h-2q-.75-2.19-1-5,1.94-2.81,4-5Z"/>
  <path class="cls-108" d="M56,62.19h1c-.47,4.06-.88,7.47-3,11h-2c.48-1.46.96-2.92,1.44-4.38.27-.81.53-1.62.81-2.46q.75-2.16,1.75-4.16Z"/>
  <path class="cls-60" d="M107.12,63.13c.95.35,1.9.7,2.88,1.06-2.67.67-5.33,1.33-8,2v-3q2-1,5.12-.06Z"/>
  <path class="cls-77" d="M6,59.19l2,1-2-1ZM3,60.19h3v5q-.99.49-2,1c-.66-.33-1.32-.66-2-1,.33-1.65.66-3.3,1-5Z"/>
  <path class="cls-67" d="M53,43.19h2c.33,2.31.66,4.62,1,7q-1.98.99-4,2c.33-2.97.66-5.94,1-9Z"/>
  <path class="cls-95" d="M100,22.19l4,1v2h2c.33.99.66,1.98,1,3q-2.94-.75-6-2-.88-2.12-1-4Z"/>
  <path class="cls-106" d="M35,21.19c.99.33,1.98.66,3,1v3c.33.99.66,1.98,1,3h-3q-1.06-2.38-2-5l1-2Z"/>
  <path class="cls-23" d="M21,65.19l4,2-4,2v2h-2v-4h2v-2Z"/>
  <path class="cls-28" d="M74,56.19c3.67,3.08,4.57,5.25,5,10-2.34-2.13-3.81-4.06-5-7v-3Z"/>
  <path class="cls-48" d="M76,55.19h4c.33,1.32.66,2.64,1,4-1.32.33-2.64.66-4,1-.33-1.65-.66-3.3-1-5Z"/>
  <path class="cls-49" d="M47,39.19q2,2,2.12,5.62c-.04,1.11-.08,2.23-.12,3.38q-.99.49-2,1-1.12-6.62,0-10Z"/>
  <path class="cls-47" d="M3,18.19h2c.33,2.97.66,5.94,1,9H2c.66-.33,1.32-.66,2-1l-1-8Z"/>
  <path class="cls-107" d="M69,12.19c4.75.43,6.92,1.33,10,5-2.39-.58-4.67-1.22-7-2v-2c-.99-.33-1.98-.66-3-1Z"/>
  <path class="cls-18" d="M34,76.19c2.89.4,3.82.79,5.75,3.06.41.64.82,1.28,1.25,1.94-.95-.33-1.9-.66-2.88-1q-2.9-1.1-5.12-1c.33-.99.66-1.98,1-3Z"/>
  <path class="cls-19" d="M64,73.19q-1,1-3.07,1.1c-.82-.01-1.65-.02-2.5-.04-.83,0-1.65-.02-2.5-.03-.64-.01-1.28-.02-1.93-.04v-2q6.62-1.25,10,1Z"/>
  <path class="cls-120" d="M97,63.19h4c-.66,1.98-1.32,3.96-2,6-1.32-.99-2.64-1.98-4-3h2v-3Z"/>
  <path class="cls-97" d="M28,60.19l2,1q-.25,1.88-1,4-2.06,1.25-4,2c.99-2.31,1.98-4.62,3-7Z"/>
  <path class="cls-76" d="M6,26.19l4,1v3q-2.97-.49-6-1c.66-.99,1.32-1.98,2-3Z"/>
</svg>