<?xml version="1.0" encoding="UTF-8"?>
<svg version="1.1" xmlns="http://www.w3.org/2000/svg" width="225" height="225">
<path d="M0 0 C3.31477777 1.50671717 4.33667236 1.38777588 7.75 0.25 C8.32363281 0.00378906 8.89726562 -0.24242188 9.48828125 -0.49609375 C15.65798582 -3.08019847 21.43972601 -3.94604462 27.98828125 -2.12890625 C33.50528054 0.20880531 36.32484177 3.8561136 38.75 9.25 C40.13501844 13.86672815 39.83332159 16.89396395 37.75 21.25 C35.1168821 24.02940223 33.51975175 25.10567155 29.75 25.8125 C26.75 25.25 26.75 25.25 24.25 22.6875 C21.97312138 19.9248734 21.97312138 19.9248734 18.75 20.125 C13.36928214 22.1427692 10.25841978 26.21184243 7.75 31.25 C7.27724724 34.69256596 7.27724724 34.69256596 7.375 38.3125 C7.36726563 39.52035156 7.35953125 40.72820312 7.3515625 41.97265625 C7.77452569 45.45173581 8.49923978 46.67174822 10.75 49.25 C10.75 49.91 10.75 50.57 10.75 51.25 C14.03969244 53.14789949 16.93976311 54.09448013 20.75 54.25 C22.42083819 52.92189785 24.08729713 51.58827304 25.75 50.25 C30.035698 49.63775743 31.976344 49.74544174 35.625 52.125 C38.88557336 55.38557336 38.95470358 57.41572398 39.0625 61.9375 C38.98624476 67.72596623 38.47343108 70.7818827 34.75 75.25 C30.04170735 78.88428119 25.21834135 79.8791863 19.34765625 79.65234375 C14.83041947 78.95268151 10.87981585 77.1368333 6.75 75.25 C5.265 74.755 5.265 74.755 3.75 74.25 C1.31425948 75.42373958 1.31425948 75.42373958 -1.1875 77.125 C-8.82877833 82.08088187 -16.34109334 81.92066032 -25.25 81.25 C-30.10310727 79.97186745 -34.16156229 77.94660014 -38.375 75.25 C-41.10120898 73.97292223 -41.10120898 73.97292223 -43.25 74.921875 C-45.37236094 75.96632429 -45.37236094 75.96632429 -47.3203125 77.171875 C-51.96025088 79.76422924 -57.06579861 79.73245529 -62.25 79.25 C-67.47130472 77.59658684 -70.70441249 75.42127942 -74.25 71.25 C-75.87894001 66.36317997 -75.62360657 62.47459932 -74.125 57.5625 C-71.91934164 53.6658369 -70.31071628 52.12417675 -66.25 50.25 C-62.44100057 50.3156724 -60.17399369 50.54341659 -57.125 52.875 C-55.30968537 54.50025366 -55.30968537 54.50025366 -52.8125 54.1875 C-49.04204542 52.8080654 -46.21230766 50.85943441 -44.12890625 47.375 C-41.99061155 42.20507858 -42.77438965 36.73885865 -44.75 31.625 C-47.12742953 26.77640716 -50.70674202 23.15134134 -55.25 20.25 C-56.24 20.25 -57.23 20.25 -58.25 20.25 C-58.9925 21.075 -59.735 21.9 -60.5 22.75 C-63.25 25.25 -63.25 25.25 -66.75 25.875 C-71.21169385 25.07826896 -72.60725313 23.90320891 -75.25 20.25 C-76.94731835 15.44093133 -76.20285598 12.53383566 -74.125 8.0625 C-71.40042223 3.0825773 -68.73118568 0.07706189 -63.25 -1.75 C-55.45060355 -2.30481343 -49.40793502 -1.81768644 -42.25 1.25 C-38.16705846 1.66825255 -35.75550719 0.75918708 -32.1875 -1.1875 C-21.48337394 -6.97663443 -10.52040561 -5.66483379 0 0 Z " fill="#E0BA7B" transform="translate(131.25,73.75)"/>
<path d="M0 0 C3.31477777 1.50671717 4.33667236 1.38777588 7.75 0.25 C8.32363281 0.00378906 8.89726562 -0.24242188 9.48828125 -0.49609375 C15.65798582 -3.08019847 21.43972601 -3.94604462 27.98828125 -2.12890625 C33.43399036 0.17859761 36.46653278 3.8361458 38.75 9.25 C39.0625 12.25 39.0625 12.25 38.75 14.25 C35.92781982 13.05600069 34.20433775 11.76364887 31.875 9.6875 C27.74158226 6.46343416 25.30534345 5.99790334 20.13671875 6.5078125 C15.70771598 7.16706866 11.98439486 7.74152465 8.375 10.5 C7.50875 11.0775 6.6425 11.655 5.75 12.25 C2.73294719 11.58772011 0.83083957 10.30254572 -1.75 8.625 C-4.52131037 7.10077929 -6.13981006 6.98341229 -9.25 7.25 C-9.91 8.57 -10.57 9.89 -11.25 11.25 C-16.2 10.26 -16.2 10.26 -21.25 9.25 C-21.25 8.92 -21.25 8.59 -21.25 8.25 C-18.61 8.25 -15.97 8.25 -13.25 8.25 C-13.745 6.765 -13.745 6.765 -14.25 5.25 C-20.77515734 4.92069299 -26.16886761 5.18175482 -32.30078125 7.515625 C-34.57994193 8.37430678 -36.84839996 8.86264515 -39.25 9.25 C-39.25 9.91 -39.25 10.57 -39.25 11.25 C-40.57 11.25 -41.89 11.25 -43.25 11.25 C-43.25 11.91 -43.25 12.57 -43.25 13.25 C-42.59 13.25 -41.93 13.25 -41.25 13.25 C-41.25 13.91 -41.25 14.57 -41.25 15.25 C-40.26 15.91 -39.27 16.57 -38.25 17.25 C-38.25 18.24 -38.25 19.23 -38.25 20.25 C-37.2267624 22.10744604 -37.2267624 22.10744604 -35.875 24 C-30.98634309 31.6584342 -30.39669512 39.32151726 -31.25 48.25 C-32.87789737 54.77837193 -35.71020551 60.56104456 -39.25 66.25 C-38.59 66.25 -37.93 66.25 -37.25 66.25 C-36.9715625 65.66992188 -36.693125 65.08984375 -36.40625 64.4921875 C-34.95231835 61.67273897 -33.22192728 59.08576852 -31.46875 56.4453125 C-28.39845663 50.91484817 -27.98014001 46.03712101 -28.125 39.875 C-28.13402344 39.13894531 -28.14304688 38.40289062 -28.15234375 37.64453125 C-28.17569856 35.8462112 -28.21156164 34.04806089 -28.25 32.25 C-24.84636576 37.35545136 -25.71586217 43.29181966 -26.25 49.25 C-27.43487352 53.54796103 -29.20110425 57.37801245 -31.375 61.2578125 C-32.36461342 63.5109502 -32.45650659 65.05480225 -32.375 67.5 C-32.33375 68.7375 -32.2925 69.975 -32.25 71.25 C-32.58 70.59 -32.91 69.93 -33.25 69.25 C-34.24 69.25 -35.23 69.25 -36.25 69.25 C-35.26 70.24 -35.26 70.24 -34.25 71.25 C-35.24 71.58 -36.23 71.91 -37.25 72.25 C-36.59 73.57 -35.93 74.89 -35.25 76.25 C-36.075 75.8375 -36.9 75.425 -37.75 75 C-42.09776198 74.06833672 -43.6193913 75.02958163 -47.3203125 77.20703125 C-51.99415982 79.7331795 -57.05910686 79.73307804 -62.25 79.25 C-67.47130472 77.59658684 -70.70441249 75.42127942 -74.25 71.25 C-75.87894001 66.36317997 -75.62360657 62.47459932 -74.125 57.5625 C-71.91934164 53.6658369 -70.31071628 52.12417675 -66.25 50.25 C-62.44100057 50.3156724 -60.17399369 50.54341659 -57.125 52.875 C-55.30968537 54.50025366 -55.30968537 54.50025366 -52.8125 54.1875 C-49.04204542 52.8080654 -46.21230766 50.85943441 -44.12890625 47.375 C-41.99061155 42.20507858 -42.77438965 36.73885865 -44.75 31.625 C-47.12742953 26.77640716 -50.70674202 23.15134134 -55.25 20.25 C-56.24 20.25 -57.23 20.25 -58.25 20.25 C-58.9925 21.075 -59.735 21.9 -60.5 22.75 C-63.25 25.25 -63.25 25.25 -66.75 25.875 C-71.21169385 25.07826896 -72.60725313 23.90320891 -75.25 20.25 C-76.94731835 15.44093133 -76.20285598 12.53383566 -74.125 8.0625 C-71.40042223 3.0825773 -68.73118568 0.07706189 -63.25 -1.75 C-55.45060355 -2.30481343 -49.40793502 -1.81768644 -42.25 1.25 C-38.16705846 1.66825255 -35.75550719 0.75918708 -32.1875 -1.1875 C-21.48337394 -6.97663443 -10.52040561 -5.66483379 0 0 Z " fill="#E5BC7D" transform="translate(131.25,73.75)"/>
<path d="M0 0 C3.31477777 1.50671717 4.33667236 1.38777588 7.75 0.25 C8.32363281 0.00378906 8.89726562 -0.24242188 9.48828125 -0.49609375 C15.65798582 -3.08019847 21.43972601 -3.94604462 27.98828125 -2.12890625 C33.43399036 0.17859761 36.46653278 3.8361458 38.75 9.25 C39.0625 12.25 39.0625 12.25 38.75 14.25 C35.92781982 13.05600069 34.20433775 11.76364887 31.875 9.6875 C27.74158226 6.46343416 25.30534345 5.99790334 20.13671875 6.5078125 C15.70771598 7.16706866 11.98439486 7.74152465 8.375 10.5 C7.50875 11.0775 6.6425 11.655 5.75 12.25 C2.73294719 11.58772011 0.83083957 10.30254572 -1.75 8.625 C-4.52131037 7.10077929 -6.13981006 6.98341229 -9.25 7.25 C-9.91 8.57 -10.57 9.89 -11.25 11.25 C-16.2 10.26 -16.2 10.26 -21.25 9.25 C-21.25 8.92 -21.25 8.59 -21.25 8.25 C-18.61 8.25 -15.97 8.25 -13.25 8.25 C-13.745 6.765 -13.745 6.765 -14.25 5.25 C-20.77515734 4.92069299 -26.16886761 5.18175482 -32.30078125 7.515625 C-34.57994193 8.37430678 -36.84839996 8.86264515 -39.25 9.25 C-39.25 9.91 -39.25 10.57 -39.25 11.25 C-43.68537341 11.83360176 -46.21714297 10.86816127 -50 8.75 C-55.07796078 6.03816921 -59.55011536 5.25644213 -65.25 6.25 C-66.24 6.91 -67.23 7.57 -68.25 8.25 C-67.26 8.25 -66.27 8.25 -65.25 8.25 C-63.58333333 8.25 -61.91666667 8.25 -60.25 8.25 C-59.92 8.91 -59.59 9.57 -59.25 10.25 C-57.23330173 11.38350534 -57.23330173 11.38350534 -55.25 12.25 C-55.25 12.91 -55.25 13.57 -55.25 14.25 C-54.59 14.58 -53.93 14.91 -53.25 15.25 C-52.59 16.57 -51.93 17.89 -51.25 19.25 C-54.22 18.26 -57.19 17.27 -60.25 16.25 C-60.311875 17.03375 -60.37375 17.8175 -60.4375 18.625 C-60.705625 19.49125 -60.97375 20.3575 -61.25 21.25 C-63.8125 22.5625 -63.8125 22.5625 -66.25 23.25 C-66.25 23.91 -66.25 24.57 -66.25 25.25 C-71.67220114 24.76802657 -71.67220114 24.76802657 -74.0625 22.625 C-75.75358371 19.24283258 -76.25 17.07718193 -76.25 13.25 C-74.22653059 7.43924051 -71.63678159 2.51042043 -66.25 -0.75 C-58.11173605 -3.46275465 -49.91916989 -2.03678709 -42.25 1.25 C-38.16705846 1.66825255 -35.75550719 0.75918708 -32.1875 -1.1875 C-21.48337394 -6.97663443 -10.52040561 -5.66483379 0 0 Z " fill="#E8CFAA" transform="translate(131.25,73.75)"/>
<path d="M0 0 C0.98033203 0.92619141 0.98033203 0.92619141 1.98046875 1.87109375 C3.90824928 3.73961702 3.90824928 3.73961702 6.8125 5.5625 C5.92290186 9.12089258 5.10733345 11.25128692 2.5625 13.9375 C-0.77703151 15.91085953 -2.37363123 16.27760039 -6.1875 15.5625 C-7.0125 14.716875 -7.8375 13.87125 -8.6875 13 C-10.96437862 10.2373734 -10.96437862 10.2373734 -14.1875 10.4375 C-19.51035303 12.43356988 -22.78110994 16.50908087 -25.1875 21.5625 C-25.90673208 25.25773952 -25.90673208 25.25773952 -26.1875 28.5625 C-27.1775 28.5625 -28.1675 28.5625 -29.1875 28.5625 C-29.1875 31.2025 -29.1875 33.8425 -29.1875 36.5625 C-29.5175 36.5625 -29.8475 36.5625 -30.1875 36.5625 C-30.69794614 23.82025182 -30.69794614 23.82025182 -27.1875 17.5625 C-27.39857293 14.28364468 -27.39857293 14.28364468 -28.1875 11.5625 C-27.5275 11.5625 -26.8675 11.5625 -26.1875 11.5625 C-26.1875 9.9125 -26.1875 8.2625 -26.1875 6.5625 C-26.8475 6.5625 -27.5075 6.5625 -28.1875 6.5625 C-28.80625 8.1403125 -28.80625 8.1403125 -29.4375 9.75 C-30.88161378 13.14954057 -32.73941058 15.77674307 -35.1875 18.5625 C-35.1875 16.9125 -35.1875 15.2625 -35.1875 13.5625 C-34.5275 13.5625 -33.8675 13.5625 -33.1875 13.5625 C-33.5175 12.9025 -33.8475 12.2425 -34.1875 11.5625 C-34.53683594 12.0678125 -34.88617188 12.573125 -35.24609375 13.09375 C-35.92865234 14.06828125 -35.92865234 14.06828125 -36.625 15.0625 C-37.07746094 15.7121875 -37.52992187 16.361875 -37.99609375 17.03125 C-38.38925781 17.5365625 -38.78242187 18.041875 -39.1875 18.5625 C-39.5175 18.5625 -39.8475 18.5625 -40.1875 18.5625 C-40.1875 16.9125 -40.1875 15.2625 -40.1875 13.5625 C-39.5275 13.5625 -38.8675 13.5625 -38.1875 13.5625 C-38.1875 11.5825 -38.1875 9.6025 -38.1875 7.5625 C-37.1975 7.2325 -36.2075 6.9025 -35.1875 6.5625 C-34.8575 4.9125 -34.5275 3.2625 -34.1875 1.5625 C-35.1775 1.2325 -36.1675 0.9025 -37.1875 0.5625 C-36.8575 1.5525 -36.5275 2.5425 -36.1875 3.5625 C-37.5075 3.2325 -38.8275 2.9025 -40.1875 2.5625 C-40.30351563 3.26761719 -40.41953125 3.97273438 -40.5390625 4.69921875 C-41.23959095 7.79251606 -42.3040683 10.46535338 -43.5625 13.375 C-45.08368984 16.93467191 -46.56019619 20.48400484 -47.875 24.125 C-49.1875 27.5625 -49.1875 27.5625 -51.1875 30.5625 C-50.86623872 33.19684254 -50.37394952 35.18960097 -49.1875 37.5625 C-50.6725 38.0575 -50.6725 38.0575 -52.1875 38.5625 C-53.22615096 40.92945387 -54.08327096 43.17805495 -54.875 45.625 C-55.21241211 46.61983398 -55.21241211 46.61983398 -55.55664062 47.63476562 C-56.11084719 49.27380207 -56.65056085 50.91772593 -57.1875 52.5625 C-58.48614468 48.66656596 -57.38625449 46.03383778 -56.25 42.25 C-54.85987214 37.61165259 -53.93755115 33.44786386 -54.1875 28.5625 C-54.8475 28.5625 -55.5075 28.5625 -56.1875 28.5625 C-56.5175 24.2725 -56.8475 19.9825 -57.1875 15.5625 C-57.8475 15.5625 -58.5075 15.5625 -59.1875 15.5625 C-62.07691312 11.047792 -63.95983468 8.09756523 -63.1875 2.5625 C-61.1875 0.5625 -61.1875 0.5625 -57.2734375 0.3671875 C-55.70300649 0.38049624 -54.13263779 0.40436398 -52.5625 0.4375 C-51.76070312 0.44652344 -50.95890625 0.45554687 -50.1328125 0.46484375 C-48.15091477 0.48843777 -46.16917019 0.52430935 -44.1875 0.5625 C-43.8575 -0.7575 -43.5275 -2.0775 -43.1875 -3.4375 C-38.82055888 -3.98336764 -36.62712512 -3.26465213 -33.125 -0.8125 C-30.13353345 1.34838812 -30.13353345 1.34838812 -26.5625 1.0625 C-25.77875 0.5675 -24.995 0.0725 -24.1875 -0.4375 C-15.97058217 -5.00245435 -7.47272127 -6.54713831 0 0 Z " fill="#DCB272" transform="translate(164.1875,83.4375)"/>
<path d="M0 0 C0.99 0.66 1.98 1.32 3 2 C2.34 2 1.68 2 1 2 C1 2.66 1 3.32 1 4 C-1.76531192 6.76531192 -3.70897263 6.36369014 -7.5625 6.5625 C-11.60086946 6.42225226 -11.60086946 6.42225226 -15 8 C-15.40612834 12.56894387 -14.88815785 14.5101426 -12 18 C-12 18.99 -12 19.98 -12 21 C-11.34 21 -10.68 21 -10 21 C-8.67770811 23.64458379 -8.90322806 25.67761301 -8.9375 28.625 C-8.94652344 29.62789062 -8.95554687 30.63078125 -8.96484375 31.6640625 C-8.97644531 32.43492188 -8.98804687 33.20578125 -9 34 C-8.34 34 -7.68 34 -7 34 C-5.82810698 39.4333222 -6.0639363 41.40906404 -9 46 C-10.08825944 48.25860171 -11.15005135 50.53011297 -12.1875 52.8125 C-12.98220703 54.55466797 -12.98220703 54.55466797 -13.79296875 56.33203125 C-14.39044922 57.65267578 -14.39044922 57.65267578 -15 59 C-15.66 59 -16.32 59 -17 59 C-17.33 59.99 -17.66 60.98 -18 62 C-19 59 -19 59 -18.0390625 56.66015625 C-17.57242188 55.80292969 -17.10578125 54.94570312 -16.625 54.0625 C-13.95205439 49.30374853 -13.95205439 49.30374853 -13 44 C-13.21914062 44.54527344 -13.43828125 45.09054688 -13.6640625 45.65234375 C-16.11643684 51.48420957 -18.9450068 57.09925108 -23 62 C-23.66 62 -24.32 62 -25 62 C-23.44777764 57.99009223 -21.69622277 54.08951146 -19.90234375 50.18359375 C-16.1806067 41.17731232 -17.2213128 31.22281242 -20.8515625 22.37890625 C-22.32778992 19.3210066 -23.96259262 16.71654318 -26 14 C-26.66 13.01 -27.32 12.02 -28 11 C-27.67 10.34 -27.34 9.68 -27 9 C-27.66 9 -28.32 9 -29 9 C-29 8.34 -29 7.68 -29 7 C-27.68 7 -26.36 7 -25 7 C-25 6.34 -25 5.68 -25 5 C-16.736573 1.28988992 -9.17334544 -0.99329218 0 0 Z " fill="#E6BF84" transform="translate(117,78)"/>
<path d="M0 0 C0.99 0.33 1.98 0.66 3 1 C3 2.98 3 4.96 3 7 C2.01 7.33 1.02 7.66 0 8 C-0.69787865 9.94090749 -0.69787865 9.94090749 -1 12.25 C-1.71562315 16.05250607 -2.7296328 18.80084622 -5 22 C-2.80882227 21.17798016 -2.80882227 21.17798016 -2.1484375 18.93359375 C-1.89320312 18.10988281 -1.63796875 17.28617188 -1.375 16.4375 C-1.11460938 15.61121094 -0.85421875 14.78492188 -0.5859375 13.93359375 C-0.39257812 13.29550781 -0.19921875 12.65742188 0 12 C0.66 12 1.32 12 2 12 C2.99 14.64 3.98 17.28 5 20 C4.67 18.68 4.34 17.36 4 16 C3.60662402 13.33864152 3.3118246 10.67278227 3 8 C5.51083114 9.25541557 5.87125446 10.50063488 7 13 C6.649375 12.0925 6.29875 11.185 5.9375 10.25 C4.99829429 6.99408687 5.04485324 6.07250006 6 3 C6.23074219 3.68707031 6.46148437 4.37414062 6.69921875 5.08203125 C9.15196196 11.94970634 9.15196196 11.94970634 15 16 C16.36244796 17.64295195 17.69864875 19.30824337 19 21 C19.99 21.66 20.98 22.32 22 23 C22 23.99 22 24.98 22 26 C21.34 26 20.68 26 20 26 C19.67 26.99 19.34 27.98 19 29 C17.02 29.33 15.04 29.66 13 30 C13 29.34 13 28.68 13 28 C12.01 27.67 11.02 27.34 10 27 C10.66 27 11.32 27 12 27 C11.67 25.68 11.34 24.36 11 23 C10.01 23.66 9.02 24.32 8 25 C4.75 25.51953125 4.75 25.51953125 1 25.8125 C-0.2375 25.92207031 -1.475 26.03164062 -2.75 26.14453125 C-6 26 -6 26 -7.9375 24.51171875 C-8.4634375 23.76341797 -8.4634375 23.76341797 -9 23 C-8.40251953 21.515 -8.40251953 21.515 -7.79296875 20 C-5.12547179 13.35815107 -2.46826375 6.71916244 0 0 Z " fill="#ECC083" transform="translate(112,120)"/>
<path d="M0 0 C4.18270401 1.69968537 8.09251171 3.74413047 12 6 C12 6.66 12 7.32 12 8 C12.66 8 13.32 8 14 8 C14 8.66 14 9.32 14 10 C14.99 10.66 15.98 11.32 17 12 C17 12.99 17 13.98 17 15 C18.0232376 16.85744604 18.0232376 16.85744604 19.375 18.75 C24.38461889 26.59792987 24.24569771 33.92283468 24 43 C23.67 43 23.34 43 23 43 C22.98582031 42.32195312 22.97164062 41.64390625 22.95703125 40.9453125 C22.59334717 33.84855833 21.39462773 27.74928239 17 22 C14.35702013 20.10586443 12.08379836 19.14989091 9 18 C9 17.34 9 16.68 9 16 C8.01 16 7.02 16 6 16 C6 16.66 6 17.32 6 18 C5.2575 17.690625 4.515 17.38125 3.75 17.0625 C2.8425 16.711875 1.935 16.36125 1 16 C0.34 15.690625 -0.32 15.38125 -1 15.0625 C-1.66 15.041875 -2.32 15.02125 -3 15 C-4.70779973 16.62449243 -6.37550757 18.29220027 -8 20 C-8.99 20 -9.98 20 -11 20 C-11 19.34 -11 18.68 -11 18 C-10.38125 17.773125 -9.7625 17.54625 -9.125 17.3125 C-6.38589791 15.62070165 -5.94975528 14.00755839 -5 11 C-0.25 10.875 -0.25 10.875 2 12 C0.15811388 9.94729537 0.15811388 9.94729537 -2 9 C-1.67 8.34 -1.34 7.68 -1 7 C-2.32 6.34 -3.64 5.68 -5 5 C-5 4.34 -5 3.68 -5 3 C-5.9075 3.37125 -6.815 3.7425 -7.75 4.125 C-11 5 -11 5 -13.375 4.125 C-13.91125 3.75375 -14.4475 3.3825 -15 3 C-10.34601308 -0.72318953 -5.6942817 -1.0076301 0 0 Z " fill="#E1BA7E" transform="translate(76,79)"/>
<path d="M0 0 C0.99 0 1.98 0 3 0 C3.12117187 0.60328125 3.24234375 1.2065625 3.3671875 1.828125 C3.53476563 2.62734375 3.70234375 3.4265625 3.875 4.25 C4.03742188 5.03890625 4.19984375 5.8278125 4.3671875 6.640625 C5.2170051 9.80908073 5.98107702 12.30858798 8.75 14.1875 C11.61982885 15.22382708 13.93194817 15.87477339 17 16 C18.67083819 14.67189785 20.33729713 13.33827304 22 12 C26.10477533 11.41360352 28.22324854 11.57785247 31.875 13.5625 C34.5771041 16.66197236 34.76683515 18.95847594 35 23 C32 23 32 23 29.125 21.375 C26.12927265 19.69755991 26.12927265 19.69755991 23.25 20.5625 C20.76267886 22.15162184 20.00335507 23.26357709 19 26 C15.6875 26.25 15.6875 26.25 12 26 C10.0625 24.125 10.0625 24.125 9 22 C9 21.34 9 20.68 9 20 C8.22269531 19.76539063 7.44539062 19.53078125 6.64453125 19.2890625 C2.64955195 17.34173138 2.1684479 14.70388415 0.71484375 10.6875 C-0.27754614 6.95654786 -0.28437958 3.83912439 0 0 Z " fill="#EFD8AD" transform="translate(135,112)"/>
<path d="M0 0 C0.70125 0.53625 1.4025 1.0725 2.125 1.625 C3.92733538 3.27090106 3.92733538 3.27090106 6.3125 2.75 C7.199375 2.5025 8.08625 2.255 9 2 C11.33177975 1.65596692 13.66487041 1.32050798 16 1 C14.62558709 5.00870431 12.96611403 7.95149392 10 11 C6.75 12.3125 6.75 12.3125 4 13 C4 13.66 4 14.32 4 15 C3.34 15 2.68 15 2 15 C2.33 12.36 2.66 9.72 3 7 C1.06183265 7.1141866 -0.87555099 7.24173423 -2.8125 7.375 C-3.89144531 7.44460937 -4.97039062 7.51421875 -6.08203125 7.5859375 C-9.18626186 7.81195733 -9.18626186 7.81195733 -12 10 C-11.79503906 10.60328125 -11.59007812 11.2065625 -11.37890625 11.828125 C-11.10949219 12.62734375 -10.84007812 13.4265625 -10.5625 14.25 C-10.16224609 15.43335938 -10.16224609 15.43335938 -9.75390625 16.640625 C-9.08045292 18.74821988 -8.50849405 20.84753973 -8 23 C-11.4375 21.6875 -11.4375 21.6875 -15 20 C-16.62894001 15.11317997 -16.37360657 11.22459932 -14.875 6.3125 C-11.2057945 -0.16976305 -7.17556129 -1.99321147 0 0 Z " fill="#ECD5AE" transform="translate(72,125)"/>
<path d="M0 0 C1.27230469 0.01804687 2.54460937 0.03609375 3.85546875 0.0546875 C5.31919922 0.08949219 5.31919922 0.08949219 6.8125 0.125 C6.8125 0.785 6.8125 1.445 6.8125 2.125 C7.4725 2.125 8.1325 2.125 8.8125 2.125 C7.99299563 7.19102698 6.01938624 11.51395693 3.96875 16.1875 C2.91814615 18.85660167 2.26920139 21.30175502 1.8125 24.125 C1.1525 24.125 0.4925 24.125 -0.1875 24.125 C-0.5175 24.785 -0.8475 25.445 -1.1875 26.125 C-1.51363281 25.26777344 -1.83976562 24.41054687 -2.17578125 23.52734375 C-4.93606897 16.24600728 -4.93606897 16.24600728 -7.9375 9.0625 C-8.93282536 6.72348541 -9.6910468 4.60726598 -10.1875 2.125 C-6.4507157 -0.36618953 -4.44298181 -0.0815226 0 0 Z " fill="#EFC082" transform="translate(113.1875,84.875)"/>
<path d="M0 0 C0.33 0.66 0.66 1.32 1 2 C3.01669827 3.13350534 3.01669827 3.13350534 5 4 C5 4.66 5 5.32 5 6 C5.66 6.33 6.32 6.66 7 7 C7.66 8.32 8.32 9.64 9 11 C6.03 10.01 3.06 9.02 0 8 C-0.061875 8.78375 -0.12375 9.5675 -0.1875 10.375 C-0.455625 11.24125 -0.72375 12.1075 -1 13 C-3.5625 14.3125 -3.5625 14.3125 -6 15 C-6 15.66 -6 16.32 -6 17 C-11.42220114 16.51802657 -11.42220114 16.51802657 -13.8125 14.375 C-15.42706146 11.14587708 -15.9355075 8.61158021 -16 5 C-14.18791129 2.44965292 -12.87048323 1.31653935 -9.9375 0.25 C-6.64751783 -0.17451383 -3.31449544 0 0 0 Z " fill="#E9C595" transform="translate(71,82)"/>
<path d="M0 0 C0.99 0.33 1.98 0.66 3 1 C3.1875 3.375 3.1875 3.375 3 6 C2.01 6.66 1.02 7.32 0 8 C-1.10636395 10.39068734 -1.10636395 10.39068734 -2 13 C-2.34417969 13.5465625 -2.68835938 14.093125 -3.04296875 14.65625 C-4.44558404 18.09122622 -4.28917385 21.47530278 -4.25 25.125 C-4.25773438 25.85332031 -4.26546875 26.58164063 -4.2734375 27.33203125 C-4.40106443 31.63043469 -4.40106443 31.63043469 -2 35 C-1.34 35 -0.68 35 0 35 C1.47265625 37.046875 1.47265625 37.046875 3.0625 39.75 C3.58972656 40.63171875 4.11695313 41.5134375 4.66015625 42.421875 C5.82839487 44.6697977 6.53220782 46.52820924 7 49 C6.34 49 5.68 49 5 49 C4.34 47.68 3.68 46.36 3 45 C2.34 45.66 1.68 46.32 1 47 C1.66 47.66 2.32 48.32 3 49 C3 49.99 3 50.98 3 52 C2.34 52 1.68 52 1 52 C-5.65210903 40.28884366 -10.71354069 30.69454271 -7.203125 16.859375 C-5.62814265 12.32827194 -3.88392342 8.82119853 -1 5 C-0.28566879 2.35065178 -0.28566879 2.35065178 0 0 Z " fill="#EBC88E" transform="translate(135,89)"/>
<path d="M0 0 C0.66 0 1.32 0 2 0 C3.7143618 1.95927063 5.38405168 3.95880212 7 6 C7.66 5.34 8.32 4.68 9 4 C11 6 11 6 11 9 C11.66 9 12.32 9 13 9 C14.32229189 11.64458379 14.09677194 13.67761301 14.0625 16.625 C14.05347656 17.62789062 14.04445313 18.63078125 14.03515625 19.6640625 C14.02355469 20.43492188 14.01195313 21.20578125 14 22 C14.66 22 15.32 22 16 22 C17.17189302 27.4333222 16.9360637 29.40906404 14 34 C12.91174056 36.25860171 11.84994865 38.53011297 10.8125 40.8125 C10.01779297 42.55466797 10.01779297 42.55466797 9.20703125 44.33203125 C8.60955078 45.65267578 8.60955078 45.65267578 8 47 C7.34 47 6.68 47 6 47 C5.67 47.99 5.34 48.98 5 50 C4 47 4 47 4.9609375 44.66015625 C5.42757812 43.80292969 5.89421875 42.94570312 6.375 42.0625 C10.65808948 34.13040971 11.70336338 25.11622188 9.24609375 16.29296875 C7.32454309 11.86963449 4.75760495 7.95256709 2 4 C1.30570621 2.6808418 0.62469505 1.35350594 0 0 Z " fill="#EEC78A" transform="translate(94,90)"/>
<path d="M0 0 C6.28328312 0.84276525 6.28328312 0.84276525 9 2 C9.33 2.99 9.66 3.98 10 5 C10.99 5 11.98 5 13 5 C13 5.66 13 6.32 13 7 C13.928125 7.103125 14.85625 7.20625 15.8125 7.3125 C19.03254358 8.0070192 20.02579865 8.47740939 22 11 C20 12.3125 20 12.3125 17 13 C14.83010235 11.9019268 12.92970952 10.57587654 10.9375 9.18359375 C8.52559758 7.71019368 6.77587623 7.56626934 4 8 C3.34 9.32 2.68 10.64 2 12 C-1.3 11.34 -4.6 10.68 -8 10 C-8 9.67 -8 9.34 -8 9 C-5.36 9 -2.72 9 0 9 C-0.33 8.01 -0.66 7.02 -1 6 C-5.29 6 -9.58 6 -14 6 C-11.55594765 -1.33215704 -6.80857821 -0.56819789 0 0 Z " fill="#EDCD9D" transform="translate(118,73)"/>
<path d="M0 0 C1.57043101 0.01330874 3.14079971 0.03717648 4.7109375 0.0703125 C5.51273438 0.07933594 6.31453125 0.08835937 7.140625 0.09765625 C9.12252273 0.12125027 11.10426731 0.15712185 13.0859375 0.1953125 C13.0859375 0.5253125 13.0859375 0.8553125 13.0859375 1.1953125 C12.09851563 1.25589844 11.11109375 1.31648438 10.09375 1.37890625 C8.81242187 1.46269531 7.53109375 1.54648438 6.2109375 1.6328125 C4.93476562 1.71402344 3.65859375 1.79523438 2.34375 1.87890625 C-0.79706402 1.98737277 -0.79706402 1.98737277 -2.9140625 3.1953125 C-1.71135483 6.98846747 -0.31130635 10.60834436 1.2890625 14.25 C2.75465303 17.82776512 3.90905475 21.51442388 5.0859375 25.1953125 C6.0759375 25.1953125 7.0659375 25.1953125 8.0859375 25.1953125 C8.1271875 24.1228125 8.1684375 23.0503125 8.2109375 21.9453125 C8.93130297 15.78341708 12.15934987 10.56519806 15.0859375 5.1953125 C15.4159375 5.8553125 15.7459375 6.5153125 16.0859375 7.1953125 C15.1953125 9.734375 15.1953125 9.734375 13.8359375 12.8203125 C12.26644406 16.441886 10.73348468 20.04319936 9.3984375 23.7578125 C8.0859375 27.1953125 8.0859375 27.1953125 6.0859375 30.1953125 C6.40719878 32.82965504 6.89948798 34.82241347 8.0859375 37.1953125 C6.6009375 37.6903125 6.6009375 37.6903125 5.0859375 38.1953125 C4.04728654 40.56226637 3.19016654 42.81086745 2.3984375 45.2578125 C2.06102539 46.25264648 2.06102539 46.25264648 1.71679688 47.26757812 C1.16259031 48.90661457 0.62287665 50.55053843 0.0859375 52.1953125 C-1.21270718 48.29937846 -0.11281699 45.66665028 1.0234375 41.8828125 C2.41356536 37.24446509 3.33588635 33.08067636 3.0859375 28.1953125 C2.4259375 28.1953125 1.7659375 28.1953125 1.0859375 28.1953125 C0.7559375 23.9053125 0.4259375 19.6153125 0.0859375 15.1953125 C-0.5740625 15.1953125 -1.2340625 15.1953125 -1.9140625 15.1953125 C-4.80347562 10.6806045 -6.68639718 7.73037773 -5.9140625 2.1953125 C-3.9140625 0.1953125 -3.9140625 0.1953125 0 0 Z " fill="#C19756" transform="translate(106.9140625,83.8046875)"/>
<path d="M0 0 C2.00233424 2.36639501 3.01287064 4.04504725 3.875 7.0625 C5.27584428 10.72026007 6.63973036 11.15985234 10 13 C11.36244796 14.64295195 12.69864875 16.30824337 14 18 C14.99 18.66 15.98 19.32 17 20 C17 20.99 17 21.98 17 23 C16.34 23 15.68 23 15 23 C14.67 23.99 14.34 24.98 14 26 C12.02 26.33 10.04 26.66 8 27 C8 26.34 8 25.68 8 25 C7.01 24.67 6.02 24.34 5 24 C5.66 24 6.32 24 7 24 C6.02519117 19.5321262 4.89315194 15.57637065 2.9375 11.4375 C1.12484387 7.5561248 0.36232004 4.25726043 0 0 Z " fill="#E7C185" transform="translate(117,123)"/>
<path d="M0 0 C0.66 0.33 1.32 0.66 2 1 C1.67 1.99 1.34 2.98 1 4 C-7.91 4.99 -7.91 4.99 -17 6 C-17 6.99 -17 7.98 -17 9 C-17.804375 9.268125 -18.60875 9.53625 -19.4375 9.8125 C-20.283125 10.204375 -21.12875 10.59625 -22 11 C-22.33 11.99 -22.66 12.98 -23 14 C-23.66 14 -24.32 14 -25 14 C-23.41450887 8.31865677 -21.32512445 4.72893869 -16.5625 1.1875 C-11.12713756 -0.62428748 -5.68208346 -0.40810544 0 0 Z " fill="#E3D0B2" transform="translate(81,72)"/>
<path d="M0 0 C0.82757813 0.44988281 1.65515625 0.89976562 2.5078125 1.36328125 C7.24672401 3.58431472 11.70198167 3.80548171 16.875 4.1875 C18.33679688 4.3102832 18.33679688 4.3102832 19.828125 4.43554688 C22.21807871 4.63470968 24.60835472 4.82252246 27 5 C26.67 5.66 26.34 6.32 26 7 C17.66443174 9.77852275 10.69705008 7.51663389 3 4 C2.01 3.67 1.02 3.34 0 3 C-2.43574052 4.17373958 -2.43574052 4.17373958 -4.9375 5.875 C-10.71588927 9.62267328 -14.46342917 10.15301112 -21.375 10.1875 C-22.66148438 10.20167969 -23.94796875 10.21585938 -25.2734375 10.23046875 C-28.88452711 10.00714141 -31.64761667 9.31293032 -35 8 C-31.75676865 6.91892288 -31.12043658 7.13687687 -28 8 C-25.24029592 8.06926968 -22.50803958 8.0941736 -19.75 8.0625 C-19.00492188 8.05798828 -18.25984375 8.05347656 -17.4921875 8.04882812 C-15.6614236 8.03709246 -13.83070127 8.0191585 -12 8 C-11.67 7.34 -11.34 6.68 -11 6 C-8.66666667 5 -6.33333333 4 -4 3 C-3.67 2.34 -3.34 1.68 -3 1 C-2.01 0.67 -1.02 0.34 0 0 Z " fill="#C2A069" transform="translate(135,145)"/>
<path d="M0 0 C4.50963118 0.18038525 7.12983464 0.7154197 10.25 3.9375 C10.70890625 4.46214844 11.1678125 4.98679687 11.640625 5.52734375 C13.12967003 7.25627819 13.12967003 7.25627819 16 9 C15.11040186 12.55839258 14.29483345 14.68878692 11.75 17.375 C8.41046849 19.34835953 6.81386877 19.71510039 3 19 C0.125 16.6875 0.125 16.6875 -2 14 C-2 13.01 -2 12.02 -2 11 C-1.34 11 -0.68 11 0 11 C0.226875 11.639375 0.45375 12.27875 0.6875 12.9375 C1.84824288 15.22648849 1.84824288 15.22648849 4.4375 15.875 C7.24443417 16.26646351 7.24443417 16.26646351 10 14 C10.2502157 10.91634129 10.2502157 10.91634129 10 8 C7.36 6.68 4.72 5.36 2 4 C2 3.34 2 2.68 2 2 C1.34 2 0.68 2 0 2 C0 1.34 0 0.68 0 0 Z " fill="#CCA260" transform="translate(155,80)"/>
<path d="M0 0 C1.5625 1.1875 1.5625 1.1875 3 3 C2.79872929 5.61651923 2.30941069 7.46838704 0.98828125 9.73828125 C-0.32975887 12.75466556 -0.42839476 15.473246 -0.625 18.75 C-0.73714844 20.50570312 -0.73714844 20.50570312 -0.8515625 22.296875 C-0.92503906 23.63492188 -0.92503906 23.63492188 -1 25 C-0.34 25 0.32 25 1 25 C0.6875 26.9375 0.6875 26.9375 0 29 C-0.99 29.33 -1.98 29.66 -3 30 C-5.43995284 26.34007073 -5.3831835 23.49194123 -5.375 19.25 C-5.37556396 18.5271582 -5.37612793 17.80431641 -5.37670898 17.05957031 C-5.26013708 11.44118682 -4.31636245 8.4218166 -1 4 C-0.23959428 1.73014106 -0.23959428 1.73014106 0 0 Z " fill="#E5BC7E" transform="translate(135,95)"/>
<path d="M0 0 C0.99 0 1.98 0 3 0 C3 0.66 3 1.32 3 2 C4.98 2.66 6.96 3.32 9 4 C9 4.66 9 5.32 9 6 C9.32597168 6.6074707 9.65194336 7.21494141 9.98779297 7.84082031 C11.13335821 10.28447178 11.23156802 11.86396639 11.1953125 14.546875 C11.18564453 15.81337891 11.18564453 15.81337891 11.17578125 17.10546875 C11.15902344 17.97816406 11.14226562 18.85085937 11.125 19.75 C11.11597656 20.63816406 11.10695313 21.52632812 11.09765625 22.44140625 C11.07414577 24.62788058 11.04128499 26.81380094 11 29 C10.34 29 9.68 29 9 29 C9.061875 29.763125 9.12375 30.52625 9.1875 31.3125 C8.96596688 34.48780806 8.28224968 34.95735659 6 37 C6.33 35.80375 6.66 34.6075 7 33.375 C8.64602026 26.03211531 9.24367945 17.26952143 7 10 C6.34 10.66 5.68 11.32 5 12 C4.0234375 10.27473958 3.046875 8.54947917 2.0703125 6.82421875 C1.10571419 5.18017711 0.05732941 3.58599412 -1 2 C-0.67 1.34 -0.34 0.68 0 0 Z " fill="#E7C891" transform="translate(82,95)"/>
<path d="M0 0 C0.33 0.66 0.66 1.32 1 2 C0.36971413 3.68076231 -0.29788106 5.34795544 -1 7 C-1 7.66 -1 8.32 -1 9 C1.58492789 8.91283383 4.16647502 8.80594881 6.75 8.6875 C7.47960937 8.66494141 8.20921875 8.64238281 8.9609375 8.61914062 C13.20570619 8.40690219 15.913858 8.02929201 19 5 C19 6.98 19 8.96 19 11 C15.7 11.66 12.4 12.32 9 13 C11.31 13.33 13.62 13.66 16 14 C12.6649553 16.36232333 9.91055721 16.03670794 5.97265625 15.42578125 C3.50904207 14.89403086 1.27963776 14.0685802 -1 13 C-1 12.34 -1 11.68 -1 11 C-1.515625 10.54625 -2.03125 10.0925 -2.5625 9.625 C-3.036875 9.08875 -3.51125 8.5525 -4 8 C-3.78252874 4.62919544 -2.09785412 2.55390936 0 0 Z " fill="#DEB771" transform="translate(105,136)"/>
<path d="M0 0 C0.33 0.99 0.66 1.98 1 3 C0.34 3 -0.32 3 -1 3 C-1.185625 4.485 -1.185625 4.485 -1.375 6 C-1.75285469 8.72164903 -2.32392677 11.29225547 -3.0625 13.9375 C-4.72174582 20.35159951 -4.07848923 26.52906459 -3 33 C-4.9375 32.1875 -4.9375 32.1875 -7 31 C-9.28474932 24.14575205 -9.111897 15.59281341 -6.25 8.9375 C-4.53038468 5.64566497 -2.49568156 2.76307601 0 0 Z " fill="#EEC182" transform="translate(130,94)"/>
<path d="M0 0 C0.66 0.33 1.32 0.66 2 1 C1.34728444 4.51705958 0.48606976 7.89325077 -0.5625 11.3125 C-0.83191406 12.19550781 -1.10132812 13.07851562 -1.37890625 13.98828125 C-1.58386719 14.65214844 -1.78882812 15.31601563 -2 16 C-2.66 16 -3.32 16 -4 16 C-4.83739781 13.8765984 -5.66980283 11.7512272 -6.5 9.625 C-7.19609375 7.84996094 -7.19609375 7.84996094 -7.90625 6.0390625 C-9 3 -9 3 -9 1 C-5.77390955 -0.07536348 -3.37822416 -0.14375422 0 0 Z " fill="#BE8C4D" transform="translate(116,87)"/>
<path d="M0 0 C2.3125 1.25 2.3125 1.25 3.3125 2.25 C3.35313832 3.91617115 3.355221 5.58388095 3.3125 7.25 C2.3225 7.58 1.3325 7.91 0.3125 8.25 C0.3125 7.26 0.3125 6.27 0.3125 5.25 C-0.3475 6.9 -1.0075 8.55 -1.6875 10.25 C-2.3475 10.25 -3.0075 10.25 -3.6875 10.25 C-3.6875 9.59 -3.6875 8.93 -3.6875 8.25 C-5.3375 7.92 -6.9875 7.59 -8.6875 7.25 C-7.76928464 4.41883598 -6.92092141 2.49951943 -4.875 0.3125 C-2.6875 -0.75 -2.6875 -0.75 0 0 Z M-19.6875 3.25 C-18.3571875 3.9615625 -18.3571875 3.9615625 -17 4.6875 C-14.11707244 6.04737149 -11.81139377 6.79060386 -8.6875 7.25 C-9.3475 7.91 -10.0075 8.57 -10.6875 9.25 C-17.14903846 8.78846154 -17.14903846 8.78846154 -19.6875 6.25 C-19.6875 5.26 -19.6875 4.27 -19.6875 3.25 Z " fill="#E2BD7B" transform="translate(163.6875,133.75)"/>
<path d="M0 0 C3.40363424 5.10545136 2.53413783 11.04181966 2 17 C1.02145314 20.54954025 -0.32214322 23.73001634 -2 27 C-2.37382813 27.75023437 -2.74765625 28.50046875 -3.1328125 29.2734375 C-3.41898438 29.84320313 -3.70515625 30.41296875 -4 31 C-4.66 31 -5.32 31 -6 31 C-6.0825 31.61875 -6.165 32.2375 -6.25 32.875 C-7 35 -7 35 -9.0625 36.25 C-9.701875 36.4975 -10.34125 36.745 -11 37 C-11 36.34 -11 35.68 -11 35 C-11.66 35 -12.32 35 -13 35 C-12.09046734 31.99154581 -11.19459571 29.32150595 -9.5625 26.625 C-7.53125337 23.21250566 -6.33130633 19.74033682 -5 16 C-4.28515625 17.546875 -4.28515625 17.546875 -4 20 C-5.05391226 22.53857885 -6.13965574 24.84495527 -7.4375 27.25 C-7.77587891 27.8996875 -8.11425781 28.549375 -8.46289062 29.21875 C-9.29786887 30.81814494 -10.14753114 32.40985859 -11 34 C-10.34 34 -9.68 34 -9 34 C-8.7215625 33.41992188 -8.443125 32.83984375 -8.15625 32.2421875 C-6.70231835 29.42273897 -4.97192728 26.83576852 -3.21875 24.1953125 C-0.14845663 18.66484817 0.26985999 13.78712101 0.125 7.625 C0.11597656 6.88894531 0.10695313 6.15289062 0.09765625 5.39453125 C0.07430144 3.5962112 0.03843836 1.79806089 0 0 Z " fill="#BE9557" transform="translate(103,106)"/>
<path d="M0 0 C2.62554632 2.62554632 2.3282598 3.90274264 2.375 7.5625 C2.19589623 16.94306018 -2.05865961 24.81946576 -8 32 C-8.66 32 -9.32 32 -10 32 C-8.76360138 28.80597022 -7.41200997 25.68156679 -6 22.5625 C-2.71423293 15.13910033 -1.21823297 8.00923381 0 0 Z " fill="#EBC083" transform="translate(102,108)"/>
<path d="M0 0 C2.3087867 2.77054404 3.34704886 5.47406384 4 9 C1 8 1 8 0 7 C-0.33 8.32 -0.66 9.64 -1 11 C-5 11 -5 11 -6.75 9.875 C-8.5133966 7.22990509 -8.20694492 5.10417379 -8 2 C-8.66 1.67 -9.32 1.34 -10 1 C-6.39076038 -0.20307987 -3.78613423 -0.40565724 0 0 Z " fill="#E2BB7F" transform="translate(69,134)"/>
<path d="M0 0 C1.16556422 3.61235934 0.96707118 6.85680531 0.8125 10.625 C0.75385436 18.67620803 2.56424777 24.34637165 7 31 C8.92746579 32.92746579 10.47668864 34.00869911 13 35 C12.67 35.99 12.34 36.98 12 38 C8.98206286 37.68196627 8.03722939 37.03996892 5.9296875 34.77734375 C-1.28657264 24.80353934 -3.07746444 17.37499595 -2 5 C-0.984375 2.10546875 -0.984375 2.10546875 0 0 Z " fill="#BA9050" transform="translate(122,104)"/>
<path d="M0 0 C0.56847656 0.08378906 1.13695312 0.16757813 1.72265625 0.25390625 C6.76635545 0.91910197 11.00294069 0.9568837 16 0 C15.835 0.763125 15.67 1.52625 15.5 2.3125 C14.90854604 5.03596236 14.90854604 5.03596236 15 8 C10.06729471 9.6442351 7.45975807 8.18615592 3 6 C3 5.34 3 4.68 3 4 C2.01 4 1.02 4 0 4 C0 2.68 0 1.36 0 0 Z " fill="#ECD7B8" transform="translate(128,74)"/>
<path d="M0 0 C1.32 0.66 2.64 1.32 4 2 C4 1.34 4 0.68 4 0 C5.32 0.33 6.64 0.66 8 1 C8 1.99 8 2.98 8 4 C7.34 4 6.68 4 6 4 C6 4.66 6 5.32 6 6 C4.68 6.33 3.36 6.66 2 7 C1.86722656 7.57234375 1.73445313 8.1446875 1.59765625 8.734375 C1.00619683 10.97650875 0.26711146 13.08579619 -0.5625 15.25 C-0.83191406 15.95640625 -1.10132812 16.6628125 -1.37890625 17.390625 C-1.58386719 17.92171875 -1.78882812 18.4528125 -2 19 C-2.66 19 -3.32 19 -4 19 C-4 21.31 -4 23.62 -4 26 C-4.99 26.33 -5.98 26.66 -7 27 C-6.63139087 20.61077509 -4.78159637 15.65511055 -2.15625 9.83203125 C-0.81822488 6.55477378 0 3.54659743 0 0 Z " fill="#F7D294" transform="translate(123,84)"/>
<path d="M0 0 C1.75 2.0625 1.75 2.0625 3 4 C2.175 3.5875 1.35 3.175 0.5 2.75 C-3.84776198 1.81833672 -5.3693913 2.77958163 -9.0703125 4.95703125 C-14.1286933 7.6910144 -20.49071445 7.93215397 -26 6.46875 C-29.75289563 4.98053277 -32.37809516 3.04140961 -35 0 C-31.59687262 1.05875074 -28.98646769 2.00902154 -26 4 C-22.56692835 4.24270825 -22.56692835 4.24270825 -18.8125 4.125 C-17.54019531 4.10695312 -16.26789063 4.08890625 -14.95703125 4.0703125 C-13.98121094 4.04710937 -13.00539063 4.02390625 -12 4 C-12 3.34 -12 2.68 -12 2 C-11.01 2 -10.02 2 -9 2 C-9 1.34 -9 0.68 -9 0 C-5.6764242 -0.83089395 -3.20400046 -1.3884002 0 0 Z " fill="#D0AF76" transform="translate(93,146)"/>
<path d="M0 0 C0.99 0.33 1.98 0.66 3 1 C2.278125 1.556875 1.55625 2.11375 0.8125 2.6875 C-6.17281963 8.43098503 -8.96210396 12.004901 -10 21 C-10.99 21 -11.98 21 -13 21 C-13 23.64 -13 26.28 -13 29 C-13.33 29 -13.66 29 -14 29 C-14.59064224 20.50787709 -14.67148084 13.72754968 -9 7 C-6.2120693 4.32436773 -3.41753432 1.83036482 0 0 Z " fill="#C5A36A" transform="translate(148,91)"/>
<path d="M0 0 C0.99 0.33 1.98 0.66 3 1 C3.1875 3.375 3.1875 3.375 3 6 C2.01 6.66 1.02 7.32 0 8 C-0.72904086 9.64034193 -1.38655243 11.31301918 -2 13 C-2.50144531 13.87398437 -3.00289062 14.74796875 -3.51953125 15.6484375 C-5.30313709 19.68625757 -5.5495812 23.01676578 -5.6875 27.375 C-5.72166016 28.11105469 -5.75582031 28.84710938 -5.79101562 29.60546875 C-5.87272789 31.40313853 -5.93805781 33.20154046 -6 35 C-8.69510494 32.30489506 -8.33022855 30.82777895 -8.375 27.0625 C-8.25263422 18.57219732 -6.09750167 11.75418971 -1 5 C-0.28566879 2.35065178 -0.28566879 2.35065178 0 0 Z " fill="#F5D297" transform="translate(135,89)"/>
<path d="M0 0 C2.30859375 1.01953125 2.30859375 1.01953125 4 2 C4 2.99 4 3.98 4 5 C4.99 5.33 5.98 5.66 7 6 C2.48281619 7.36884358 -0.58774263 6.47075246 -5 5 C-5 4.34 -5 3.68 -5 3 C-5.9075 3.37125 -6.815 3.7425 -7.75 4.125 C-11 5 -11 5 -13.375 4.125 C-13.91125 3.75375 -14.4475 3.3825 -15 3 C-10.41072753 -0.67141797 -5.63222282 -0.70517261 0 0 Z " fill="#D2B07E" transform="translate(76,79)"/>
<path d="M0 0 C1.73694677 2.60542016 2.69100448 4.58342775 3.6875 7.5 C3.95949219 8.2734375 4.23148438 9.046875 4.51171875 9.84375 C5 12 5 12 4 15 C3.01 12.69 2.02 10.38 1 8 C1.50797009 12.3177458 2.19682779 16.03302114 4 20 C2.0625 19.4375 2.0625 19.4375 0 18 C-0.75 14.375 -0.75 14.375 -1 11 C-1.66 11 -2.32 11 -3 11 C-3.185625 12.36125 -3.185625 12.36125 -3.375 13.75 C-3.92109677 16.58970323 -4.57263803 18.52590591 -6 21 C-6.66 21 -7.32 21 -8 21 C-3.63106796 7.63106796 -3.63106796 7.63106796 -1 5 C-0.35232207 2.42938689 -0.35232207 2.42938689 0 0 Z " fill="#C79C5D" transform="translate(115,121)"/>
<path d="M0 0 C3.94140436 -0.30912975 6.36169288 -0.34690605 9.875 1.5625 C12.5771041 4.66197236 12.76683515 6.95847594 13 11 C9.30581799 11 7.22163822 9.71820705 4 8 C4.33 6.35 4.66 4.7 5 3 C4.34 3 3.68 3 3 3 C3 2.34 3 1.68 3 1 C2.01 0.67 1.02 0.34 0 0 Z " fill="#E3CAA5" transform="translate(157,124)"/>
<path d="M0 0 C2 1 2 1 2.60546875 2.6484375 C4.1862218 12.07035173 3.38108778 20.51164243 -1 29 C-1.66 29 -2.32 29 -3 29 C-1.125 24.25 -1.125 24.25 0 22 C-1.32 21.67 -2.64 21.34 -4 21 C-3.34515625 20.17242187 -2.6903125 19.34484375 -2.015625 18.4921875 C0.42030623 14.83829065 0.46586038 11.40899837 0.25 7.125 C0.23195313 6.43664062 0.21390625 5.74828125 0.1953125 5.0390625 C0.14863748 3.3587619 0.07690939 1.67918837 0 0 Z " fill="#D2B987" transform="translate(88,104)"/>
<path d="M0 0 C2 2 2 2 2 3 C2.66 3.33 3.32 3.66 4 4 C4.66 5.32 5.32 6.64 6 8 C3.03 7.01 0.06 6.02 -3 5 C-3.0825 5.78375 -3.165 6.5675 -3.25 7.375 C-4 10 -4 10 -6.0625 11.3125 C-6.701875 11.539375 -7.34125 11.76625 -8 12 C-9.125 9.1875 -9.125 9.1875 -10 6 C-7.86567858 2.79851787 -7.31580104 2.47793261 -3.875 1.3125 C-3.15054688 1.06113281 -2.42609375 0.80976562 -1.6796875 0.55078125 C-0.84824219 0.27814453 -0.84824219 0.27814453 0 0 Z " fill="#E2C387" transform="translate(74,85)"/>
<path d="M0 0 C2.6015625 0.0234375 2.6015625 0.0234375 5.625 0.375 C6.62789062 0.48585938 7.63078125 0.59671875 8.6640625 0.7109375 C9.82035156 0.85402344 9.82035156 0.85402344 11 1 C11 1.66 11 2.32 11 3 C12.58272601 4.58272601 14.38034003 4.34735747 16.5625 4.5625 C17.38878906 4.64628906 18.21507813 4.73007813 19.06640625 4.81640625 C19.70449219 4.87699219 20.34257813 4.93757813 21 5 C19.68 5.33 18.36 5.66 17 6 C17 6.66 17 7.32 17 8 C11.90229172 8.3718693 8.68534545 7.23363859 4.125 5 C2.97257812 4.443125 1.82015625 3.88625 0.6328125 3.3125 C-0.23601562 2.879375 -1.10484375 2.44625 -2 2 C-1.34 1.34 -0.68 0.68 0 0 Z " fill="#EDCE9E" transform="translate(75,77)"/>
<path d="M0 0 C0.99 0.33 1.98 0.66 3 1 C3 1.99 3 2.98 3 4 C4.0232376 5.85744604 4.0232376 5.85744604 5.375 7.75 C10.38461889 15.59792987 10.24569771 22.92283468 10 32 C9.67 32 9.34 32 9 32 C9.020625 31.3915625 9.04125 30.783125 9.0625 30.15625 C8.86491041 21.75869259 5.7140863 15.72326484 1.8125 8.50390625 C0.41503037 5.80233241 -0.48663095 3.91901332 -1 1 C-0.67 0.67 -0.34 0.34 0 0 Z " fill="#B3843F" transform="translate(90,90)"/>
<path d="M0 0 C0.74813575 4.78806878 -1.30508868 7.56710249 -3.80859375 11.42578125 C-4.20175781 11.94527344 -4.59492188 12.46476562 -5 13 C-5.33 13 -5.66 13 -6 13 C-6 11.35 -6 9.7 -6 8 C-5.34 8 -4.68 8 -4 8 C-4.33 7.34 -4.66 6.68 -5 6 C-5.34933594 6.5053125 -5.69867188 7.010625 -6.05859375 7.53125 C-6.51363281 8.1809375 -6.96867188 8.830625 -7.4375 9.5 C-7.88996094 10.1496875 -8.34242187 10.799375 -8.80859375 11.46875 C-9.20175781 11.9740625 -9.59492187 12.479375 -10 13 C-10.33 13 -10.66 13 -11 13 C-11 11.35 -11 9.7 -11 8 C-10.34 8 -9.68 8 -9 8 C-9 6.02 -9 4.04 -9 2 C-8.01 2 -7.02 2 -6 2 C-3 0 -3 0 0 0 Z " fill="#C89B5B" transform="translate(135,89)"/>
<path d="M0 0 C1.57043101 0.01330874 3.14079971 0.03717648 4.7109375 0.0703125 C5.51273438 0.07933594 6.31453125 0.08835937 7.140625 0.09765625 C9.12252273 0.12125027 11.10426731 0.15712185 13.0859375 0.1953125 C13.0859375 0.5253125 13.0859375 0.8553125 13.0859375 1.1953125 C12.09851563 1.25589844 11.11109375 1.31648438 10.09375 1.37890625 C8.81242187 1.46269531 7.53109375 1.54648438 6.2109375 1.6328125 C4.93476562 1.71402344 3.65859375 1.79523438 2.34375 1.87890625 C-0.79706402 1.98737277 -0.79706402 1.98737277 -2.9140625 3.1953125 C-1.85659292 6.53040888 -0.70584881 9.64258636 0.7734375 12.8203125 C2.0859375 16.1953125 2.0859375 16.1953125 1.7734375 18.6328125 C1.5465625 19.1484375 1.3196875 19.6640625 1.0859375 20.1953125 C0.7559375 18.5453125 0.4259375 16.8953125 0.0859375 15.1953125 C-0.5740625 15.1953125 -1.2340625 15.1953125 -1.9140625 15.1953125 C-4.80347562 10.6806045 -6.68639718 7.73037773 -5.9140625 2.1953125 C-3.9140625 0.1953125 -3.9140625 0.1953125 0 0 Z " fill="#B68946" transform="translate(106.9140625,83.8046875)"/>
<path d="M0 0 C0.66 0 1.32 0 2 0 C2 0.66 2 1.32 2 2 C2.66 2 3.32 2 4 2 C5 6 6 10 7 14 C3.5625 12.6875 3.5625 12.6875 0 11 C-1.16461426 7.50615721 -1.13568319 4.66344611 -1 1 C-0.67 0.67 -0.34 0.34 0 0 Z " fill="#DFC19A" transform="translate(57,134)"/>
<path d="M0 0 C0.33 0 0.66 0 1 0 C3.09271581 9.49331988 0.58753366 15.63606183 -4 24 C-4.66 24 -5.32 24 -6 24 C-6.33 24.99 -6.66 25.98 -7 27 C-8 24 -8 24 -7.109375 22.01171875 C-6.66078125 21.24472656 -6.2121875 20.47773438 -5.75 19.6875 C-2.42173155 13.42961363 -1.22817085 6.92967944 0 0 Z " fill="#F9D69C" transform="translate(106,113)"/>
<path d="M0 0 C5.26159459 -0.64165788 7.68592849 0.79422999 11.6796875 3.90625 C12.11539063 4.2671875 12.55109375 4.628125 13 5 C10 6 10 6 7.8125 5.0625 C7.214375 4.711875 6.61625 4.36125 6 4 C6.33 4.99 6.66 5.98 7 7 C5.68 6.67 4.36 6.34 3 6 C2.67 7.32 2.34 8.64 2 10 C1.67 9.01 1.34 8.02 1 7 C0.34 7 -0.32 7 -1 7 C-0.67 4.69 -0.34 2.38 0 0 Z " fill="#DBB577" transform="translate(121,80)"/>
<path d="M0 0 C0.9075 0.391875 1.815 0.78375 2.75 1.1875 C2.193125 1.249375 1.63625 1.31125 1.0625 1.375 C-2.73333226 2.70867079 -5.46170413 5.61090827 -7.25 9.1875 C-13.65 8.69519231 -13.65 8.69519231 -16.6875 6.125 C-17.203125 5.485625 -17.71875 4.84625 -18.25 4.1875 C-13.3 5.1775 -13.3 5.1775 -8.25 6.1875 C-7.92 4.8675 -7.59 3.5475 -7.25 2.1875 C-4.62737864 -0.72652373 -3.88017248 -0.97004312 0 0 Z " fill="#B1874C" transform="translate(162.25,131.8125)"/>
<path d="M0 0 C1.65 0.33 3.3 0.66 5 1 C5.4998202 7.12279743 4.45350289 10.10753758 1 15 C-1.25 16.4375 -1.25 16.4375 -3 17 C-3.66 16.34 -4.32 15.68 -5 15 C-4.34 15 -3.68 15 -3 15 C-2.71125 14.4225 -2.4225 13.845 -2.125 13.25 C-1.41636036 11.83272072 -0.67066707 10.43281551 0.125 9.0625 C1.18906364 6.55434998 1.21321597 4.70073557 1 2 C0.67 1.34 0.34 0.68 0 0 Z " fill="#CFB076" transform="translate(165,134)"/>
<path d="M0 0 C0.66 0 1.32 0 2 0 C2.19335938 0.55429688 2.38671875 1.10859375 2.5859375 1.6796875 C2.84632812 2.40414062 3.10671875 3.12859375 3.375 3.875 C3.63023438 4.59429687 3.88546875 5.31359375 4.1484375 6.0546875 C4.93877783 8.18157994 4.93877783 8.18157994 7 10 C6 11 6 11 3.93359375 11.09765625 C0.46679688 11.04882812 0.46679688 11.04882812 -3 11 C-2.01 7.37 -1.02 3.74 0 0 Z " fill="#E9C07E" transform="translate(112,132)"/>
<path d="M0 0 C0.99 0.495 0.99 0.495 2 1 C2.309375 2.155 2.61875 3.31 2.9375 4.5 C3.288125 5.655 3.63875 6.81 4 8 C4.99 8.33 5.98 8.66 7 9 C7.33 10.98 7.66 12.96 8 15 C7.01 15.66 6.02 16.32 5 17 C4.01 16.67 3.02 16.34 2 16 C2.66 15.67 3.32 15.34 4 15 C3.71125 14.46375 3.4225 13.9275 3.125 13.375 C1.00231604 8.89377831 -0.29356215 4.99055649 0 0 Z " fill="#EDC282" transform="translate(115,128)"/>
<path d="M0 0 C2.02721618 2.39580094 3.04849549 4.15457936 4 7.1875 C4.33 8.115625 4.66 9.04375 5 10 C5.99 10.33 6.98 10.66 8 11 C7.979375 11.9075 7.95875 12.815 7.9375 13.75 C7.86841007 16.84256815 7.86841007 16.84256815 8.5625 19.125 C9.09000994 21.3857569 8.70227228 22.81515292 8 25 C7.01 24.67 6.02 24.34 5 24 C5.66 24 6.32 24 7 24 C6.02519117 19.5321262 4.89315194 15.57637065 2.9375 11.4375 C1.12484387 7.5561248 0.36232004 4.25726043 0 0 Z " fill="#F8D497" transform="translate(117,123)"/>
<path d="M0 0 C3.06393013 -0.25532751 4.63233212 -0.21861333 7.3125 1.375 C7.869375 1.91125 8.42625 2.4475 9 3 C9 3.66 9 4.32 9 5 C9.66 5 10.32 5 11 5 C11 5.66 11 6.32 11 7 C9.88625 6.5359375 9.88625 6.5359375 8.75 6.0625 C7.8425 5.711875 6.935 5.36125 6 5 C5.34 4.690625 4.68 4.38125 4 4.0625 C3.34 4.041875 2.68 4.02125 2 4 C0.29220027 5.62449243 -1.37550757 7.29220027 -3 9 C-3.99 9 -4.98 9 -6 9 C-6 8.34 -6 7.68 -6 7 C-5.071875 6.6596875 -5.071875 6.6596875 -4.125 6.3125 C-1.38589791 4.62070165 -0.94975528 3.00755839 0 0 Z " fill="#D0B680" transform="translate(71,90)"/>
<path d="M0 0 C2.0625 0.4375 2.0625 0.4375 4 1 C3.01 2.98 2.02 4.96 1 7 C-0.32 6.67 -1.64 6.34 -3 6 C-1.125 1.125 -1.125 1.125 0 0 Z M-14 2 C-12.6696875 2.7115625 -12.6696875 2.7115625 -11.3125 3.4375 C-8.42957244 4.79737149 -6.12389377 5.54060386 -3 6 C-3.66 6.66 -4.32 7.32 -5 8 C-11.46153846 7.53846154 -11.46153846 7.53846154 -14 5 C-14 4.01 -14 3.02 -14 2 Z " fill="#EEC185" transform="translate(158,135)"/>
<path d="M0 0 C0.33 0 0.66 0 1 0 C1 1.98 1 3.96 1 6 C-0.95689037 6.36205464 -2.91557668 6.71441421 -4.875 7.0625 C-5.96554688 7.25972656 -7.05609375 7.45695313 -8.1796875 7.66015625 C-11 8 -11 8 -13 7 C-13 6.34 -13 5.68 -13 5 C-12.14535156 4.80664062 -11.29070312 4.61328125 -10.41015625 4.4140625 C-9.30542969 4.15367187 -8.20070313 3.89328125 -7.0625 3.625 C-5.96035156 3.36976563 -4.85820313 3.11453125 -3.72265625 2.8515625 C-2.82417969 2.57054687 -1.92570312 2.28953125 -1 2 C-0.67 1.34 -0.34 0.68 0 0 Z " fill="#C99B5E" transform="translate(123,141)"/>
<path d="M0 0 C0.99 0 1.98 0 3 0 C3 0.66 3 1.32 3 2 C4.98 2.66 6.96 3.32 9 4 C8.01 6.64 7.02 9.28 6 12 C3.51137122 8.76478258 1.24578442 5.40739705 -1 2 C-0.67 1.34 -0.34 0.68 0 0 Z " fill="#DAC18E" transform="translate(82,95)"/>
<path d="M0 0 C1.4370809 -0.05422947 2.87475462 -0.09289723 4.3125 -0.125 C5.11300781 -0.14820312 5.91351563 -0.17140625 6.73828125 -0.1953125 C9 0 9 0 12 2 C11.34 2 10.68 2 10 2 C10 2.66 10 3.32 10 4 C8 6 8 6 6.125 6.265625 C5.42375 6.26046875 4.7225 6.2553125 4 6.25 C3.29875 6.25515625 2.5975 6.2603125 1.875 6.265625 C0 6 0 6 -2 4 C-1.34 2.68 -0.68 1.36 0 0 Z " fill="#D5AC73" transform="translate(108,78)"/>
<path d="M0 0 C3 2 3 2 3.51171875 3.9453125 C3.67447917 5.96354167 3.83723958 7.98177083 4 10 C2.35 10.33 0.7 10.66 -1 11 C-1 10.34 -1 9.68 -1 9 C-2.32 9 -3.64 9 -5 9 C-5 8.34 -5 7.68 -5 7 C-4.34 6.67 -3.68 6.34 -3 6 C-3.66 5.34 -4.32 4.68 -5 4 C-4.34 3.67 -3.68 3.34 -3 3 C-2.34 3.33 -1.68 3.66 -1 4 C-0.67 2.68 -0.34 1.36 0 0 Z " fill="#EAC587" transform="translate(99,139)"/>
<path d="M0 0 C0.33 0.66 0.66 1.32 1 2 C0.67 2.66 0.34 3.32 0 4 C1.98 3.01 3.96 2.02 6 1 C6.125 3.875 6.125 3.875 6 7 C5.34 7.66 4.68 8.32 4 9 C3.01 9 2.02 9 1 9 C1 8.34 1 7.68 1 7 C-0.32 6.67 -1.64 6.34 -3 6 C-1.125 1.125 -1.125 1.125 0 0 Z " fill="#DCAB64" transform="translate(160,87)"/>
<path d="M0 0 C-3.23552709 3.88263251 -6.0952914 4.96742977 -11 6 C-13.9375 6.125 -13.9375 6.125 -16 6 C-12.57204767 1.22535211 -12.57204767 1.22535211 -9.9375 0.1875 C-6.63786524 -0.13181949 -3.31349857 0 0 0 Z " fill="#E0C199" transform="translate(71,82)"/>
<path d="M0 0 C-0.66 1.98 -1.32 3.96 -2 6 C-4.31 6 -6.62 6 -9 6 C-9.66 4.68 -10.32 3.36 -11 2 C-7.12315913 0.80712589 -4.08378077 0 0 0 Z " fill="#F3D097" transform="translate(156,132)"/>
<path d="M0 0 C-0.43197635 4.7517398 -1.32769295 6.92000054 -5 10 C-5.99 9.67 -6.98 9.34 -8 9 C-6.53333333 3.5 -6.53333333 3.5 -4 1.125 C-2 0 -2 0 0 0 Z " fill="#E4D1B2" transform="translate(65,125)"/>
<path d="M0 0 C0.66 0 1.32 0 2 0 C2.309375 1.11375 2.61875 2.2275 2.9375 3.375 C3.82326483 6.7945155 3.82326483 6.7945155 5 9 C4.01 9.33 3.02 9.66 2 10 C0.96134904 12.36695387 0.10422904 14.61555495 -0.6875 17.0625 C-0.91244141 17.72572266 -1.13738281 18.38894531 -1.36914062 19.07226562 C-1.92334719 20.71130207 -2.46306085 22.35522593 -3 24 C-4.29864468 20.10406596 -3.19875449 17.47133778 -2.0625 13.6875 C-0.67237214 9.04915259 0.24994885 4.88536386 0 0 Z " fill="#CFA565" transform="translate(110,112)"/>
<path d="M0 0 C1.0625 1.875 1.0625 1.875 2 4 C1.67 4.66 1.34 5.32 1 6 C0.34 6 -0.32 6 -1 6 C-0.95359375 6.61488281 -0.9071875 7.22976562 -0.859375 7.86328125 C-0.75067201 10.29745175 -0.70815027 12.57936402 -1 15 C-3 17.0625 -3 17.0625 -5 18 C-5.33 16.02 -5.66 14.04 -6 12 C-5.34 12 -4.68 12 -4 12 C-3.896875 11.13375 -3.79375 10.2675 -3.6875 9.375 C-2.96601586 5.83316877 -1.72876739 3.15687958 0 0 Z " fill="#DFB877" transform="translate(125,91)"/>
<path d="M0 0 C0.99 0 1.98 0 3 0 C3.10957031 0.59167969 3.21914062 1.18335937 3.33203125 1.79296875 C4.25914403 6.41345763 5.22351335 10.0876779 8 14 C7.01 14.33 6.02 14.66 5 15 C2 10.25 2 10.25 2 8 C1.34 8 0.68 8 0 8 C0 5.36 0 2.72 0 0 Z " fill="#EBCAA1" transform="translate(135,112)"/>
<path d="M0 0 C-0.350625 0.61875 -0.70125 1.2375 -1.0625 1.875 C-1.371875 2.57625 -1.68125 3.2775 -2 4 C-1.67 4.66 -1.34 5.32 -1 6 C-4.58391038 7.19463679 -6.07918075 6.97360642 -9.75 5.75 C-13 4 -13 4 -14 1 C-13.01 1 -12.02 1 -11 1 C-11 1.66 -11 2.32 -11 3 C-10.37351563 2.7834375 -9.74703125 2.566875 -9.1015625 2.34375 C-7.87566406 1.92609375 -7.87566406 1.92609375 -6.625 1.5 C-5.81289062 1.2215625 -5.00078125 0.943125 -4.1640625 0.65625 C-2 0 -2 0 0 0 Z " fill="#E9D3AC" transform="translate(144,76)"/>
<path d="M0 0 C0.66 0 1.32 0 2 0 C2.226875 0.639375 2.45375 1.27875 2.6875 1.9375 C3.83490817 4.2095835 3.83490817 4.2095835 6.3125 4.8125 C9.09708143 5.00677312 11.30622291 4.69268554 14 4 C13 7 13 7 11 8 C8.1875 8.375 8.1875 8.375 5 8 C2.125 5.6875 2.125 5.6875 0 3 C0 2.01 0 1.02 0 0 Z " fill="#C19D63" transform="translate(153,91)"/>
<path d="M0 0 C0.66 0.33 1.32 0.66 2 1 C2 2.65 2 4.3 2 6 C1.195625 6.268125 0.39125 6.53625 -0.4375 6.8125 C-1.283125 7.204375 -2.12875 7.59625 -3 8 C-3.33 8.99 -3.66 9.98 -4 11 C-4.66 11 -5.32 11 -6 11 C-4.74194623 6.49197399 -3.09592835 3.5087188 0 0 Z " fill="#E1D6BC" transform="translate(62,75)"/>
<path d="M0 0 C1.5625 1 1.5625 1 3 3 C2.80944704 5.76301796 2.47081902 8.28696364 2 11 C1.80149357 12.66539161 1.61375997 14.33210718 1.4375 16 C1.35371094 16.763125 1.26992187 17.52625 1.18359375 18.3125 C1.12300781 18.869375 1.06242187 19.42625 1 20 C0.67 20 0.34 20 0 20 C-0.19656224 17.79245484 -0.38185459 15.58390461 -0.5625 13.375 C-0.66691406 12.14523438 -0.77132812 10.91546875 -0.87890625 9.6484375 C-0.99191061 6.24372538 -0.69045563 3.32441602 0 0 Z " fill="#DDB474" transform="translate(100,100)"/>
<path d="M0 0 C1.98 0.99 1.98 0.99 4 2 C4 1.34 4 0.68 4 0 C5.32 0.33 6.64 0.66 8 1 C8 1.99 8 2.98 8 4 C7.34 4 6.68 4 6 4 C6 4.66 6 5.32 6 6 C5.360625 6.103125 4.72125 6.20625 4.0625 6.3125 C3.381875 6.539375 2.70125 6.76625 2 7 C1.67 7.99 1.34 8.98 1 10 C0.67 6.7 0.34 3.4 0 0 Z " fill="#EAC788" transform="translate(123,84)"/>
<path d="M0 0 C2.31 0 4.62 0 7 0 C6.01 3.3 5.02 6.6 4 10 C2.33094759 6.66189518 1.1258614 3.53842155 0 0 Z " fill="#EAB978" transform="translate(109,90)"/>
<path d="M0 0 C2.25 0.125 2.25 0.125 5 1 C7.375 3.875 7.375 3.875 9 7 C8.67 7.99 8.34 8.98 8 10 C7.01 9.67 6.02 9.34 5 9 C5.66 8.67 6.32 8.34 7 8 C7 7.34 7 6.68 7 6 C5.68 5.67 4.36 5.34 3 5 C3 4.34 3 3.68 3 3 C2.01 2.67 1.02 2.34 0 2 C0 1.34 0 0.68 0 0 Z " fill="#E8CBAE" transform="translate(160,74)"/>
<path d="M0 0 C3.25193497 1.03110133 6.32802774 2.14910352 9.4375 3.5625 C13.02165297 5.00873716 16.16970034 5.6091531 20 6 C20 6.33 20 6.66 20 7 C13.81785217 7.37849885 9.47213855 7.00431136 4 4 C1.5625 1.8125 1.5625 1.8125 0 0 Z " fill="#C0A265" transform="translate(58,146)"/>
<path d="M0 0 C0 0.99 0 1.98 0 3 C-4.47830028 4.43305609 -8.23917255 5.44286767 -13 5 C-13.66 4.34 -14.32 3.68 -15 3 C-14.00097656 2.86722656 -13.00195312 2.73445312 -11.97265625 2.59765625 C-10.68230469 2.42105469 -9.39195313 2.24445313 -8.0625 2.0625 C-6.77472656 1.88847656 -5.48695312 1.71445313 -4.16015625 1.53515625 C-1.14533687 1.33837577 -1.14533687 1.33837577 0 0 Z " fill="#F0CB90" transform="translate(119,141)"/>
<path d="M0 0 C0.33 0.66 0.66 1.32 1 2 C3.61178042 2.47222764 3.61178042 2.47222764 6.6875 2.625 C7.72261719 2.69976562 8.75773437 2.77453125 9.82421875 2.8515625 C12.88848825 2.99478789 15.93292457 3.02758988 19 3 C17 5 17 5 13.84765625 5.265625 C12.59855469 5.26046875 11.34945312 5.2553125 10.0625 5.25 C8.81597656 5.25515625 7.56945312 5.2603125 6.28515625 5.265625 C3 5 3 5 0 3 C0 2.01 0 1.02 0 0 Z " fill="#E0BD82" transform="translate(64,146)"/>
<path d="M0 0 C1.32 0.66 2.64 1.32 4 2 C3.39816251 4.02045442 2.72693904 6.02111039 2 8 C1.01 8.495 1.01 8.495 0 9 C-0.66 8.34 -1.32 7.68 -2 7 C-1.34 4.69 -0.68 2.38 0 0 Z " fill="#CBAC76" transform="translate(167,87)"/>
<path d="M0 0 C0 2.31 0 4.62 0 7 C-0.99 7 -1.98 7 -3 7 C-3 9.64 -3 12.28 -3 15 C-3.33 15 -3.66 15 -4 15 C-4.08078641 12.87561661 -4.13909141 10.7503677 -4.1875 8.625 C-4.22230469 7.44164063 -4.25710937 6.25828125 -4.29296875 5.0390625 C-4.19628906 4.03617187 -4.09960938 3.03328125 -4 2 C-1 0 -1 0 0 0 Z " fill="#D2AE77" transform="translate(138,105)"/>
<path d="M0 0 C2.24107496 2.88138209 4.33168894 5.74679343 6 9 C5.67 9.99 5.34 10.98 5 12 C4.67 11.34 4.34 10.68 4 10 C1.98330173 8.86649466 1.98330173 8.86649466 0 8 C0.33 7.01 0.66 6.02 1 5 C0.60602665 2.36195411 0.60602665 2.36195411 0 0 Z " fill="#D5AB6E" transform="translate(129,128)"/>
<path d="M0 0 C0.33 1.32 0.66 2.64 1 4 C-2.63 4 -6.26 4 -10 4 C-7.93026888 -0.13946223 -4.25879356 -0.23659964 0 0 Z " fill="#E8CD99" transform="translate(73,128)"/>
<path d="M0 0 C2.475 0.495 2.475 0.495 5 1 C5 3.31 5 5.62 5 8 C3.68 8 2.36 8 1 8 C1.020625 7.05125 1.04125 6.1025 1.0625 5.125 C1.22551826 2.09333717 1.22551826 2.09333717 0 0 Z " fill="#C4AA7D" transform="translate(165,134)"/>
<path d="M0 0 C1.5625 1.1875 1.5625 1.1875 3 3 C2.6875 5.6875 2.6875 5.6875 2 8 C0.35 8.33 -1.3 8.66 -3 9 C-2.649375 8.38125 -2.29875 7.7625 -1.9375 7.125 C-1.628125 6.42375 -1.31875 5.7225 -1 5 C-1.33 4.34 -1.66 3.68 -2 3 C-1.34 3 -0.68 3 0 3 C0 2.01 0 1.02 0 0 Z " fill="#E1B875" transform="translate(120,136)"/>
<path d="M0 0 C1.45823212 -0.0270043 2.91660675 -0.04639787 4.375 -0.0625 C5.18710938 -0.07410156 5.99921875 -0.08570313 6.8359375 -0.09765625 C9 0 9 0 11 1 C11.625 4.0625 11.625 4.0625 12 7 C10 5.6875 10 5.6875 8 4 C8 3.01 8 2.02 8 1 C3.545 1.495 3.545 1.495 -1 2 C-0.67 1.34 -0.34 0.68 0 0 Z " fill="#AB8547" transform="translate(61,133)"/>
<path d="M0 0 C0 1.32 0 2.64 0 4 C-0.99 4 -1.98 4 -3 4 C-3 3.34 -3 2.68 -3 2 C-5.97 1.67 -8.94 1.34 -12 1 C-12 0.67 -12 0.34 -12 0 C-7.66726186 -0.92844389 -4.33273814 -0.92844389 0 0 Z " fill="#E3C286" transform="translate(75,132)"/>
<path d="M0 0 C4.72727273 4.36363636 4.72727273 4.36363636 5.9375 7.1875 C5.9684375 8.0846875 5.9684375 8.0846875 6 9 C5.34 9.66 4.68 10.32 4 11 C3.32591692 9.73308493 2.66099503 8.46129251 2 7.1875 C1.62875 6.47980469 1.2575 5.77210937 0.875 5.04296875 C0 3 0 3 0 0 Z " fill="#EFC58D" transform="translate(95,95)"/>
<path d="M0 0 C0.66 0.33 1.32 0.66 2 1 C1.67 2.65 1.34 4.3 1 6 C-2.63 5.34 -6.26 4.68 -10 4 C-10 3.67 -10 3.34 -10 3 C-7.36 3 -4.72 3 -2 3 C-2 2.34 -2 1.68 -2 1 C-1.34 0.67 -0.68 0.34 0 0 Z " fill="#E9BE81" transform="translate(120,79)"/>
<path d="M0 0 C0.66 0.99 1.32 1.98 2 3 C3.32 3.66 4.64 4.32 6 5 C1.545 5.495 1.545 5.495 -3 6 C-3.66 4.68 -4.32 3.36 -5 2 C-4.01 2 -3.02 2 -2 2 C-2 2.66 -2 3.32 -2 4 C-1.34 4 -0.68 4 0 4 C0 2.68 0 1.36 0 0 Z " fill="#DBBB7B" transform="translate(100,146)"/>
<path d="M0 0 C3 1 3 1 6 3 C6 3.66 6 4.32 6 5 C6.66 5.66 7.32 6.32 8 7 C4.30581799 7 2.22163822 5.71820705 -1 4 C-0.67 2.68 -0.34 1.36 0 0 Z " fill="#E0BF93" transform="translate(162,128)"/>
<path d="M0 0 C2.37948772 0.17625835 3.70225849 0.69719773 5.37890625 2.40234375 C6.62115486 3.90649092 7.81376056 5.45129851 9 7 C8.67 7.66 8.34 8.32 8 9 C7.566875 8.34 7.13375 7.68 6.6875 7 C5.8521875 6.01 5.8521875 6.01 5 5 C4.01 5 3.02 5 2 5 C1.34 3.35 0.68 1.7 0 0 Z " fill="#D3A66A" transform="translate(91,91)"/>
<path d="M0 0 C1.58206057 0.00667536 3.16410534 0.0186375 4.74609375 0.03515625 C5.55240234 0.03966797 6.35871094 0.04417969 7.18945312 0.04882812 C9.18753131 0.06065107 11.18557158 0.07858711 13.18359375 0.09765625 C13.18359375 0.42765625 13.18359375 0.75765625 13.18359375 1.09765625 C12.219375 1.14664063 11.25515625 1.195625 10.26171875 1.24609375 C8.9984375 1.32085937 7.73515625 1.395625 6.43359375 1.47265625 C4.55414063 1.57707031 4.55414063 1.57707031 2.63671875 1.68359375 C-0.42638746 2.05088929 -2.23614891 2.49476911 -4.81640625 4.09765625 C-4.81640625 -0.37176644 -4.61521372 0.11809656 0 0 Z " fill="#C79859" transform="translate(106.81640625,83.90234375)"/>
<path d="M0 0 C1.98 0 3.96 0 6 0 C5.67 0.99 5.34 1.98 5 3 C1.7 3.33 -1.6 3.66 -5 4 C-5 3.34 -5 2.68 -5 2 C-3.35 2 -1.7 2 0 2 C0 1.34 0 0.68 0 0 Z " fill="#DBC9B0" transform="translate(72,72)"/>
<path d="M0 0 C0.66 0 1.32 0 2 0 C2 2.97 2 5.94 2 9 C1.01 8.67 0.02 8.34 -1 8 C-1.04241723 5.66705225 -1.04092937 3.33297433 -1 1 C-0.67 0.67 -0.34 0.34 0 0 Z " fill="#DDCBAB" transform="translate(57,134)"/>
<path d="M0 0 C0.33 0 0.66 0 1 0 C1.29296875 6.0546875 1.29296875 6.0546875 1 8 C0.01 8.66 -0.98 9.32 -2 10 C-2.66 9.34 -3.32 8.68 -4 8 C-3.67 7.01 -3.34 6.02 -3 5 C-2.34 5 -1.68 5 -1 5 C-0.67 3.35 -0.34 1.7 0 0 Z " fill="#EAC287" transform="translate(119,105)"/>
<path d="M0 0 C0.66 0 1.32 0 2 0 C1.6641593 3.10652645 1.40950721 4.60414303 -0.875 6.8125 C-3 8 -3 8 -6 8 C-6 7.34 -6 6.68 -6 6 C-5.38125 5.7525 -4.7625 5.505 -4.125 5.25 C-1.64931313 3.79371361 -1.04874998 2.62187494 0 0 Z " fill="#AB9252" transform="translate(71,91)"/>
<path d="M0 0 C0.66 0.33 1.32 0.66 2 1 C2 3.31 2 5.62 2 8 C1.01 7.67 0.02 7.34 -1 7 C-1.33 5.02 -1.66 3.04 -2 1 C-1.34 0.67 -0.68 0.34 0 0 Z " fill="#E7D4B8" transform="translate(57,87)"/>
<path d="M0 0 C4.95 1.98 4.95 1.98 10 4 C9.67 4.66 9.34 5.32 9 6 C2.25 5.25 2.25 5.25 0 3 C0 2.01 0 1.02 0 0 Z " fill="#EFC991" transform="translate(144,137)"/>
<path d="M0 0 C0.33 0.66 0.66 1.32 1 2 C-0.125 3.9375 -0.125 3.9375 -2 6 C-5.1875 6.75 -5.1875 6.75 -8 7 C-8 6.34 -8 5.68 -8 5 C-6.25 3.7109375 -6.25 3.7109375 -4 2.375 C-3.2575 1.92898437 -2.515 1.48296875 -1.75 1.0234375 C-1.1725 0.68570313 -0.595 0.34796875 0 0 Z " fill="#D1AD73" transform="translate(84,133)"/>
<path d="M0 0 C1.423125 0.495 1.423125 0.495 2.875 1 C5.77062452 2.10159191 5.77062452 2.10159191 8 2 C8 3.65 8 5.3 8 7 C4.2047869 5.50902342 2.38957269 3.24299151 0 0 Z " fill="#DDBE92" transform="translate(162,81)"/>
<path d="M0 0 C0.99 0.33 1.98 0.66 3 1 C3 1.66 3 2.32 3 3 C4.32 3.33 5.64 3.66 7 4 C7 4.66 7 5.32 7 6 C4.69 5.67 2.38 5.34 0 5 C0 3.35 0 1.7 0 0 Z " fill="#E7C49C" transform="translate(160,76)"/>
<path d="M0 0 C1 3 1 3 0.0625 5.1875 C-0.4634375 6.0846875 -0.4634375 6.0846875 -1 7 C-1.66 7 -2.32 7 -3 7 C-3.33 7.99 -3.66 8.98 -4 10 C-5 7 -5 7 -4.25 5 C-3.01451365 3.02322184 -1.71960324 1.56327567 0 0 Z " fill="#F1CF92" transform="translate(103,130)"/>
<path d="M0 0 C0.66 0 1.32 0 2 0 C3.32 2.31 4.64 4.62 6 7 C5.01 7.33 4.02 7.66 3 8 C0 3.375 0 3.375 0 0 Z " fill="#E4D1AA" transform="translate(137,119)"/>
<path d="M0 0 C0.66 0 1.32 0 2 0 C2.66 2.31 3.32 4.62 4 7 C3.34 7 2.68 7 2 7 C1.67 7.66 1.34 8.32 1 9 C0.63877119 7.68942607 0.28619689 6.37646376 -0.0625 5.0625 C-0.35833984 3.96615234 -0.35833984 3.96615234 -0.66015625 2.84765625 C-0.77230469 2.23792969 -0.88445312 1.62820312 -1 1 C-0.67 0.67 -0.34 0.34 0 0 Z " fill="#E8BA7B" transform="translate(108,95)"/>
<path d="M0 0 C0 0.99 0 1.98 0 3 C-2.3125 3.6875 -2.3125 3.6875 -5 4 C-6.8125 2.5625 -6.8125 2.5625 -8 1 C-2.25 -1.125 -2.25 -1.125 0 0 Z " fill="#F3D4A6" transform="translate(143,79)"/>
<path d="M0 0 C0 1.98 0 3.96 0 6 C-1.98 6.33 -3.96 6.66 -6 7 C-2.86206897 0 -2.86206897 0 0 0 Z " fill="#D0A668" transform="translate(124,141)"/>
<path d="M0 0 C0.33 0.66 0.66 1.32 1 2 C0.35561283 3.67540664 -0.31246699 5.34183216 -1 7 C-1 7.99 -1 8.98 -1 10 C-1.66 10 -2.32 10 -3 10 C-3.75 7.8125 -3.75 7.8125 -4 5 C-2.0625 2.1875 -2.0625 2.1875 0 0 Z " fill="#C89C5E" transform="translate(105,136)"/>
<path d="M0 0 C0.33 0 0.66 0 1 0 C0.53199289 4.05606165 0.12046792 7.46588679 -2 11 C-2.66 11 -3.32 11 -4 11 C-3.52269162 9.5410574 -3.04308958 8.08286504 -2.5625 6.625 C-2.29566406 5.81289062 -2.02882813 5.00078125 -1.75390625 4.1640625 C-1 2 -1 2 0 0 Z " fill="#C0944F" transform="translate(111,131)"/>
<path d="M0 0 C0.94875 0.350625 1.8975 0.70125 2.875 1.0625 C0.20833333 1.72916667 -2.45833333 2.39583333 -5.125 3.0625 C-5.125 2.0725 -5.125 1.0825 -5.125 0.0625 C-3.125 -0.9375 -3.125 -0.9375 0 0 Z " fill="#C59C5C" transform="translate(162.125,131.9375)"/>
<path d="M0 0 C2 1 2 1 2 1 Z M-3 1 C-2.01 1 -1.02 1 0 1 C0 2.65 0 4.3 0 6 C-0.99 6.495 -0.99 6.495 -2 7 C-2.66 6.67 -3.32 6.34 -4 6 C-3.67 4.35 -3.34 2.7 -3 1 Z " fill="#EDDDC3" transform="translate(61,128)"/>
<path d="M0 0 C0.66 0 1.32 0 2 0 C2.33 2.31 2.66 4.62 3 7 C1.02 7.99 1.02 7.99 -1 9 C-0.67 6.03 -0.34 3.06 0 0 Z " fill="#E8BC8A" transform="translate(108,112)"/>
<path d="M0 0 C1.32 0.33 2.64 0.66 4 1 C4 1.66 4 2.32 4 3 C4.66 3 5.32 3 6 3 C6.33 3.99 6.66 4.98 7 6 C4.0625 5.25 4.0625 5.25 1 4 C0.125 1.875 0.125 1.875 0 0 Z " fill="#DFBA77" transform="translate(155,91)"/>
<path d="M0 0 C0.99 0.33 1.98 0.66 3 1 C3 1.99 3 2.98 3 4 C3.33 4.99 3.66 5.98 4 7 C3.01 7 2.02 7 1 7 C-0.0625 4.625 -0.0625 4.625 -1 2 C-0.67 1.34 -0.34 0.68 0 0 Z " fill="#AB7B3F" transform="translate(90,90)"/>
<path d="M0 0 C1.32 0.66 2.64 1.32 4 2 C2.02 2.99 2.02 2.99 0 4 C0 4.66 0 5.32 0 6 C-0.66 6 -1.32 6 -2 6 C-2 4.68 -2 3.36 -2 2 C-1.34 2 -0.68 2 0 2 C0 1.34 0 0.68 0 0 Z " fill="#F5D497" transform="translate(76,134)"/>
<path d="M0 0 C3.67230705 3.07999946 4.56802365 5.2482602 5 10 C2.66063182 7.87330165 1.19346152 5.93775144 0 3 C0 2.01 0 1.02 0 0 Z " fill="#F8D799" transform="translate(129,125)"/>
<path d="M0 0 C1.32 0 2.64 0 4 0 C4.33 1.32 4.66 2.64 5 4 C3.68 4.33 2.36 4.66 1 5 C0.67 3.35 0.34 1.7 0 0 Z " fill="#ECBF87" transform="translate(131,124)"/>
<path d="M0 0 C2 2 2 2 2.125 5.625 C2.08375 6.73875 2.0425 7.8525 2 9 C1.01 9.495 1.01 9.495 0 10 C-1.125 3.375 -1.125 3.375 0 0 Z " fill="#E9C294" transform="translate(102,108)"/>
<path d="M0 0 C0.66 0 1.32 0 2 0 C2.33 2.97 2.66 5.94 3 9 C1.68 9 0.36 9 -1 9 C-0.34 8.67 0.32 8.34 1 8 C0.67 5.36 0.34 2.72 0 0 Z " fill="#E4CBA6" transform="translate(58,87)"/>
<path d="M0 0 C4.7517398 0.43197635 6.92000054 1.32769295 10 5 C7.61435923 4.42415568 5.33317216 3.77772405 3 3 C3 2.34 3 1.68 3 1 C2.01 0.67 1.02 0.34 0 0 Z " fill="#C49B63" transform="translate(124,81)"/>
<path d="M0 0 C2.88575819 0.39803561 3.82189513 0.79009069 5.75 3.0625 C6.1625 3.701875 6.575 4.34125 7 5 C6.05125 4.67 5.1025 4.34 4.125 4 C1.22937548 2.89840809 1.22937548 2.89840809 -1 3 C-0.67 2.01 -0.34 1.02 0 0 Z " fill="#C19C62" transform="translate(89,145)"/>
<path d="M0 0 C-1 1 -1 1 -3.06640625 1.09765625 C-3.89011719 1.08605469 -4.71382813 1.07445312 -5.5625 1.0625 C-6.38878906 1.05347656 -7.21507813 1.04445312 -8.06640625 1.03515625 C-8.70449219 1.02355469 -9.34257813 1.01195312 -10 1 C-10 0.34 -10 -0.32 -10 -1 C-3.375 -2.25 -3.375 -2.25 0 0 Z " fill="#D3AF6D" transform="translate(119,142)"/>
<path d="M0 0 C1.32 0 2.64 0 4 0 C3.34 1.98 2.68 3.96 2 6 C0.68 5.01 -0.64 4.02 -2 3 C-1.34 3 -0.68 3 0 3 C0 2.01 0 1.02 0 0 Z " fill="#E9C885" transform="translate(152,132)"/>
<path d="M0 0 C0.66 0.33 1.32 0.66 2 1 C1.75 2.875 1.75 2.875 1 5 C-1.0625 6.25 -1.0625 6.25 -3 7 C-2.01 4.69 -1.02 2.38 0 0 Z " fill="#EACC9D" transform="translate(83,129)"/>
<path d="M0 0 C1.32 0.33 2.64 0.66 4 1 C4 1.99 4 2.98 4 4 C1.03 3.505 1.03 3.505 -2 3 C-1.34 2.01 -0.68 1.02 0 0 Z " fill="#D8C499" transform="translate(61,95)"/>
</svg>
